<svg width="17" height="17" viewBox="0 0 17 17" fill="none" xmlns="http://www.w3.org/2000/svg">
<path d="M6.41268 12.9759C6.28601 12.9759 6.15934 12.9292 6.05934 12.8292L2.01268 8.78252C1.81934 8.58919 1.81934 8.26919 2.01268 8.07585L6.05934 4.02919C6.25268 3.83585 6.57268 3.83585 6.76601 4.02919C6.95934 4.22252 6.95934 4.54252 6.76601 4.73585L3.07268 8.42919L6.76601 12.1225C6.95934 12.3159 6.95934 12.6359 6.76601 12.8292C6.67268 12.9292 6.53934 12.9759 6.41268 12.9759Z" fill="#42A476"/>
<path d="M13.6995 8.9292H2.47949C2.20616 8.9292 1.97949 8.70253 1.97949 8.4292C1.97949 8.15587 2.20616 7.9292 2.47949 7.9292H13.6995C13.9728 7.9292 14.1995 8.15587 14.1995 8.4292C14.1995 8.70253 13.9728 8.9292 13.6995 8.9292Z" fill="#42A476"/>
</svg>
