<svg width="48" height="48" viewBox="0 0 48 48" fill="none" xmlns="http://www.w3.org/2000/svg">
<path d="M24 45.5C12.14 45.5 2.5 35.86 2.5 24C2.5 12.14 12.14 2.5 24 2.5C35.86 2.5 45.5 12.14 45.5 24C45.5 35.86 35.86 45.5 24 45.5ZM24 5.5C13.8 5.5 5.5 13.8 5.5 24C5.5 34.2 13.8 42.5 24 42.5C34.2 42.5 42.5 34.2 42.5 24C42.5 13.8 34.2 5.5 24 5.5Z" fill="#42A476"/>
<path d="M31.0601 28.02C30.6801 28.02 30.3001 27.88 30.0001 27.58L24.0001 21.58L18.0001 27.58C17.4201 28.16 16.4601 28.16 15.8801 27.58C15.3001 27 15.3001 26.04 15.8801 25.46L22.9401 18.4C23.5201 17.82 24.4801 17.82 25.0601 18.4L32.1201 25.46C32.7001 26.04 32.7001 27 32.1201 27.58C31.8201 27.88 31.4401 28.02 31.0601 28.02Z" fill="#42A476"/>
</svg>
