<svg width="32" height="32" viewBox="0 0 32 32" fill="none" xmlns="http://www.w3.org/2000/svg">
<path d="M16.0001 30.3334C8.09342 30.3334 1.66675 23.9067 1.66675 16.0001C1.66675 8.09342 8.09342 1.66675 16.0001 1.66675C23.9067 1.66675 30.3334 8.09342 30.3334 16.0001C30.3334 23.9067 23.9067 30.3334 16.0001 30.3334ZM16.0001 3.66675C9.20008 3.66675 3.66675 9.20008 3.66675 16.0001C3.66675 22.8001 9.20008 28.3334 16.0001 28.3334C22.8001 28.3334 28.3334 22.8001 28.3334 16.0001C28.3334 9.20008 22.8001 3.66675 16.0001 3.66675Z" fill="#717171"/>
<path d="M14.3199 21.7066C14.0666 21.7066 13.8132 21.6133 13.6132 21.4133C13.2266 21.0266 13.2266 20.3866 13.6132 20L17.6132 16L13.6132 12C13.2266 11.6133 13.2266 10.9733 13.6132 10.5866C13.9999 10.2 14.6399 10.2 15.0266 10.5866L19.7332 15.2933C20.1199 15.68 20.1199 16.32 19.7332 16.7066L15.0266 21.4133C14.8266 21.6133 14.5732 21.7066 14.3199 21.7066Z" fill="#717171"/>
</svg>
