<svg width="28" height="28" viewBox="0 0 28 28" fill="none" xmlns="http://www.w3.org/2000/svg">
<path d="M13.9999 15.5166C13.8482 15.5166 13.6966 15.4816 13.5566 15.3999L3.25491 9.4383C2.83491 9.1933 2.69489 8.6566 2.93989 8.2366C3.18489 7.8166 3.70988 7.67658 4.14155 7.92158L13.9999 13.6266L23.7999 7.95661C24.2199 7.71161 24.7566 7.8633 25.0016 8.27163C25.2466 8.69163 25.0949 9.22826 24.6866 9.47326L14.4549 15.3999C14.3032 15.4699 14.1516 15.5166 13.9999 15.5166Z" fill="#42A476"/>
<path d="M14 26.0867C13.5217 26.0867 13.125 25.69 13.125 25.2117V14.63C13.125 14.1517 13.5217 13.755 14 13.755C14.4783 13.755 14.875 14.1517 14.875 14.63V25.2117C14.875 25.69 14.4783 26.0867 14 26.0867Z" fill="#42A476"/>
<path d="M14.0002 26.5417C12.9736 26.5417 11.9586 26.32 11.1536 25.8767L4.92356 22.4117C3.23189 21.4784 1.91357 19.2267 1.91357 17.29V10.6983C1.91357 8.76168 3.23189 6.52173 4.92356 5.57673L11.1536 2.12337C12.7519 1.23671 15.2486 1.23671 16.8469 2.12337L23.0769 5.58834C24.7686 6.52167 26.0869 8.77336 26.0869 10.71V17.3017C26.0869 19.2384 24.7686 21.4783 23.0769 22.4233L16.8469 25.8767C16.0419 26.32 15.0269 26.5417 14.0002 26.5417ZM14.0002 3.20837C13.2652 3.20837 12.5419 3.36004 12.0052 3.6517L5.77524 7.11667C4.65524 7.74667 3.66357 9.41502 3.66357 10.71V17.3017C3.66357 18.5851 4.65524 20.265 5.77524 20.895L12.0052 24.36C13.0669 24.955 14.9335 24.955 15.9952 24.36L22.2252 20.895C23.3452 20.265 24.3369 18.5967 24.3369 17.3017V10.71C24.3369 9.42669 23.3452 7.74667 22.2252 7.11667L15.9952 3.6517C15.4585 3.36004 14.7352 3.20837 14.0002 3.20837Z" fill="#42A476"/>
<path d="M19.8336 16.3218C19.3553 16.3218 18.9586 15.9251 18.9586 15.4468V11.6901L8.31863 5.55345C7.89863 5.30845 7.75861 4.77176 8.00361 4.36343C8.24861 3.94343 8.77363 3.80341 9.19363 4.04841L20.2653 10.4418C20.5336 10.5935 20.7086 10.8851 20.7086 11.2001V15.4701C20.7086 15.9251 20.312 16.3218 19.8336 16.3218Z" fill="#42A476"/>
</svg>
