<svg width="28" height="28" viewBox="0 0 28 28" fill="none" xmlns="http://www.w3.org/2000/svg">
<path d="M14.5833 26.5417H4.76001C2.92834 26.5417 1.42334 25.0717 1.42334 23.2517V5.93835C1.42334 4.15335 2.08834 2.76502 3.30167 2.00668C4.52667 1.23668 6.11334 1.26002 7.75834 2.07668L12.9383 4.62001C14.35 5.32001 15.4583 7.08168 15.4583 8.64501V25.6667C15.4583 26.145 15.0617 26.5417 14.5833 26.5417ZM5.32001 3.20835C4.91167 3.20835 4.53834 3.30168 4.22334 3.50001C3.54667 3.92001 3.17334 4.79501 3.17334 5.93835V23.2517C3.17334 24.1033 3.88501 24.7917 4.76001 24.7917H13.7083V8.64501C13.7083 7.74668 12.985 6.59168 12.1567 6.19501L6.97667 3.65168C6.38167 3.36002 5.82167 3.20835 5.32001 3.20835Z" fill="#42A476"/>
<path d="M21.9449 26.5417H14.5833C14.1049 26.5417 13.7083 26.145 13.7083 25.6667V12.1567C13.7083 11.8883 13.8249 11.6433 14.0349 11.48C14.2449 11.3167 14.5016 11.2467 14.7699 11.305L15.3183 11.4217L22.9483 13.125C25.2699 13.6383 26.4366 15.0033 26.5066 17.325C26.5183 17.325 26.5183 17.4417 26.5183 17.57V21.98C26.5066 24.9667 24.9316 26.5417 21.9449 26.5417ZM15.4583 24.7917H21.9449C23.9983 24.7917 24.7566 24.0333 24.7566 21.98V17.4767C24.6983 15.8783 24.0916 15.1667 22.5633 14.8283L15.4583 13.2417V24.7917Z" fill="#42A476"/>
<path d="M10.4651 11.375H6.41675C5.93841 11.375 5.54175 10.9783 5.54175 10.5C5.54175 10.0217 5.93841 9.625 6.41675 9.625H10.4651C10.9434 9.625 11.3401 10.0217 11.3401 10.5C11.3401 10.9783 10.9551 11.375 10.4651 11.375Z" fill="#42A476"/>
<path d="M10.4651 16.0416H6.41675C5.93841 16.0416 5.54175 15.645 5.54175 15.1666C5.54175 14.6883 5.93841 14.2916 6.41675 14.2916H10.4651C10.9434 14.2916 11.3401 14.6883 11.3401 15.1666C11.3401 15.645 10.9551 16.0416 10.4651 16.0416Z" fill="#42A476"/>
<path d="M17.7566 20.7084C15.8316 20.7084 14.2566 19.1334 14.2566 17.2084V12.2734C14.2566 12.0051 14.3733 11.7601 14.5833 11.5851C14.7933 11.4101 15.0616 11.3517 15.3183 11.4101L20.5683 12.5884C20.9649 12.6817 21.2566 13.0317 21.2566 13.4401V17.1967C21.2566 19.1334 19.6933 20.7084 17.7566 20.7084ZM16.0066 13.3701V17.2084C16.0066 18.1767 16.7883 18.9584 17.7566 18.9584C18.7249 18.9584 19.5066 18.1767 19.5066 17.2084V14.1517L16.0066 13.3701Z" fill="#42A476"/>
<path d="M23.0066 20.7084C21.0816 20.7084 19.5066 19.1334 19.5066 17.2084V13.4517C19.5066 13.1834 19.6233 12.9384 19.8333 12.775C20.0433 12.6117 20.3116 12.5417 20.5683 12.6L22.9366 13.125C25.2583 13.6384 26.4249 15.0034 26.4949 17.325C26.4949 17.3484 26.4949 17.3717 26.4949 17.395C26.4016 19.25 24.8733 20.7084 23.0066 20.7084ZM21.2566 14.5367V17.2084C21.2566 18.1767 22.0383 18.9584 23.0066 18.9584C23.9283 18.9584 24.6866 18.2467 24.7449 17.3367C24.6866 15.8667 24.0799 15.1667 22.5633 14.8284L21.2566 14.5367Z" fill="#42A476"/>
</svg>
