<svg width="28" height="28" viewBox="0 0 28 28" fill="none" xmlns="http://www.w3.org/2000/svg">
<path d="M15.1666 26.5417H5.83325C3.00992 26.5417 1.45825 24.99 1.45825 22.1667V12.8334C1.45825 10.01 3.00992 8.45837 5.83325 8.45837H11.6666C12.1449 8.45837 12.5416 8.85504 12.5416 9.33337V22.1667C12.5416 24.01 13.3233 24.7917 15.1666 24.7917C15.6449 24.7917 16.0416 25.1884 16.0416 25.6667C16.0416 26.145 15.6449 26.5417 15.1666 26.5417ZM5.83325 10.2084C3.98992 10.2084 3.20825 10.99 3.20825 12.8334V22.1667C3.20825 24.01 3.98992 24.7917 5.83325 24.7917H11.4332C11.0132 24.1034 10.7916 23.2284 10.7916 22.1667V10.2084H5.83325Z" fill="#42A476"/>
<path d="M11.6666 10.2083H5.83325C5.35492 10.2083 4.95825 9.81163 4.95825 9.33329V6.99996C4.95825 5.22663 6.39325 3.79163 8.16659 3.79163H11.7949C12.0632 3.79163 12.3199 3.91993 12.4833 4.12993C12.6466 4.3516 12.7049 4.63163 12.6349 4.8883C12.5649 5.14496 12.5416 5.43663 12.5416 5.83329V9.33329C12.5416 9.81163 12.1449 10.2083 11.6666 10.2083ZM6.70825 8.45829H10.7916V5.83329C10.7916 5.72829 10.7916 5.63496 10.7916 5.54163H8.16659C7.36159 5.54163 6.70825 6.19496 6.70825 6.99996V8.45829Z" fill="#42A476"/>
<path d="M16.3333 16.0417C15.8549 16.0417 15.4583 15.645 15.4583 15.1667V9.33337C15.4583 8.85504 15.8549 8.45837 16.3333 8.45837C16.8116 8.45837 17.2083 8.85504 17.2083 9.33337V15.1667C17.2083 15.645 16.8116 16.0417 16.3333 16.0417Z" fill="#42A476"/>
<path d="M21 16.0417C20.5217 16.0417 20.125 15.645 20.125 15.1667V9.33337C20.125 8.85504 20.5217 8.45837 21 8.45837C21.4783 8.45837 21.875 8.85504 21.875 9.33337V15.1667C21.875 15.645 21.4783 16.0417 21 16.0417Z" fill="#42A476"/>
<path d="M20.9999 26.5417H16.3333C15.8549 26.5417 15.4583 26.145 15.4583 25.6667V21C15.4583 19.88 16.3799 18.9584 17.4999 18.9584H19.8333C20.9533 18.9584 21.8749 19.88 21.8749 21V25.6667C21.8749 26.145 21.4783 26.5417 20.9999 26.5417ZM17.2083 24.7917H20.1249V21C20.1249 20.8367 19.9966 20.7084 19.8333 20.7084H17.4999C17.3366 20.7084 17.2083 20.8367 17.2083 21V24.7917Z" fill="#42A476"/>
<path d="M7 20.7083C6.52167 20.7083 6.125 20.3116 6.125 19.8333V15.1666C6.125 14.6883 6.52167 14.2916 7 14.2916C7.47833 14.2916 7.875 14.6883 7.875 15.1666V19.8333C7.875 20.3116 7.47833 20.7083 7 20.7083Z" fill="#42A476"/>
<path d="M22.1667 26.5417H15.1667C12.3434 26.5417 10.7917 24.99 10.7917 22.1667V5.83337C10.7917 3.01004 12.3434 1.45837 15.1667 1.45837H22.1667C24.9901 1.45837 26.5417 3.01004 26.5417 5.83337V22.1667C26.5417 24.99 24.9901 26.5417 22.1667 26.5417ZM15.1667 3.20837C13.3234 3.20837 12.5417 3.99004 12.5417 5.83337V22.1667C12.5417 24.01 13.3234 24.7917 15.1667 24.7917H22.1667C24.0101 24.7917 24.7917 24.01 24.7917 22.1667V5.83337C24.7917 3.99004 24.0101 3.20837 22.1667 3.20837H15.1667Z" fill="#42A476"/>
</svg>
