<svg width="28" height="28" viewBox="0 0 28 28" fill="none" xmlns="http://www.w3.org/2000/svg">
<path d="M23.3328 13.7084H4.66617C4.39784 13.7084 4.15284 13.5918 3.98951 13.3818C3.82617 13.1834 3.75617 12.9034 3.81451 12.6468L5.13284 6.34676C5.56451 4.30509 6.43951 2.42676 9.90451 2.42676H18.1062C21.5712 2.42676 22.4462 4.31676 22.8778 6.34676L24.1962 12.6584C24.2545 12.9151 24.1845 13.1834 24.0212 13.3934C23.8462 13.5918 23.6012 13.7084 23.3328 13.7084ZM5.73951 11.9584H22.2478L21.1512 6.70842C20.8245 5.18009 20.4395 4.17676 18.0945 4.17676H9.90451C7.55951 4.17676 7.17451 5.18009 6.84784 6.70842L5.73951 11.9584Z" fill="#42A476"/>
<path d="M23.2862 26.5417H21.0929C19.2029 26.5417 18.8412 25.4567 18.6079 24.745L18.3745 24.045C18.0712 23.1584 18.0362 23.0417 16.9862 23.0417H11.0129C9.96286 23.0417 9.89286 23.24 9.62453 24.045L9.3912 24.745C9.1462 25.4684 8.7962 26.5417 6.9062 26.5417H4.71286C3.7912 26.5417 2.90453 26.1567 2.2862 25.48C1.67953 24.815 1.38786 23.9284 1.46953 23.0417L2.12286 15.9367C2.29786 14.0117 2.8112 11.9584 6.5562 11.9584H21.4429C25.1879 11.9584 25.6895 14.0117 25.8762 15.9367L26.5295 23.0417C26.6112 23.9284 26.3195 24.815 25.7129 25.48C25.0945 26.1567 24.2079 26.5417 23.2862 26.5417ZM11.0129 21.2917H16.9862C19.1095 21.2917 19.6112 22.2367 20.0312 23.4734L20.2762 24.1967C20.4745 24.7917 20.4745 24.8034 21.1045 24.8034H23.2979C23.7295 24.8034 24.1379 24.6284 24.4295 24.3134C24.7095 24.01 24.8379 23.625 24.8029 23.2167L24.1495 16.1117C23.9979 14.5367 23.8112 13.72 21.4662 13.72H6.5562C4.19953 13.72 4.01286 14.5367 3.87286 16.1117L3.21953 23.2167C3.18453 23.625 3.31286 24.01 3.59286 24.3134C3.87286 24.6284 4.29286 24.8034 4.72453 24.8034H6.91786C7.54786 24.8034 7.54786 24.7917 7.7462 24.2084L7.97953 23.4967C8.2712 22.5634 8.70286 21.2917 11.0129 21.2917Z" fill="#42A476"/>
<path d="M4.66618 10.2084H3.49951C3.02118 10.2084 2.62451 9.81171 2.62451 9.33337C2.62451 8.85504 3.02118 8.45837 3.49951 8.45837H4.66618C5.14451 8.45837 5.54118 8.85504 5.54118 9.33337C5.54118 9.81171 5.14451 10.2084 4.66618 10.2084Z" fill="#42A476"/>
<path d="M24.4994 10.2084H23.3328C22.8544 10.2084 22.4578 9.81171 22.4578 9.33337C22.4578 8.85504 22.8544 8.45837 23.3328 8.45837H24.4994C24.9778 8.45837 25.3744 8.85504 25.3744 9.33337C25.3744 9.81171 24.9778 10.2084 24.4994 10.2084Z" fill="#42A476"/>
<path d="M13.9995 6.70846C13.5212 6.70846 13.1245 6.31179 13.1245 5.83346V3.50012C13.1245 3.02179 13.5212 2.62512 13.9995 2.62512C14.4778 2.62512 14.8745 3.02179 14.8745 3.50012V5.83346C14.8745 6.31179 14.4778 6.70846 13.9995 6.70846Z" fill="#42A476"/>
<path d="M15.7495 6.70837H12.2495C11.7712 6.70837 11.3745 6.31171 11.3745 5.83337C11.3745 5.35504 11.7712 4.95837 12.2495 4.95837H15.7495C16.2278 4.95837 16.6245 5.35504 16.6245 5.83337C16.6245 6.31171 16.2278 6.70837 15.7495 6.70837Z" fill="#42A476"/>
<path d="M10.4995 18.3751H6.99951C6.52118 18.3751 6.12451 17.9785 6.12451 17.5001C6.12451 17.0218 6.52118 16.6251 6.99951 16.6251H10.4995C10.9778 16.6251 11.3745 17.0218 11.3745 17.5001C11.3745 17.9785 10.9778 18.3751 10.4995 18.3751Z" fill="#42A476"/>
<path d="M20.9995 18.3751H17.4995C17.0212 18.3751 16.6245 17.9785 16.6245 17.5001C16.6245 17.0218 17.0212 16.6251 17.4995 16.6251H20.9995C21.4778 16.6251 21.8745 17.0218 21.8745 17.5001C21.8745 17.9785 21.4778 18.3751 20.9995 18.3751Z" fill="#42A476"/>
</svg>
