<svg width="40" height="40" viewBox="0 0 40 40" fill="none" xmlns="http://www.w3.org/2000/svg">
<path d="M24.1299 25.5684L14.2304 15.6689C13.8922 15.3307 13.8922 14.7697 14.2304 14.4315C14.5686 14.0932 15.1296 14.0932 15.4678 14.4315L25.3673 24.331C25.7056 24.6692 25.7056 25.2302 25.3673 25.5684C25.0291 25.9066 24.4681 25.9066 24.1299 25.5684Z" fill="#42A476"/>
<path d="M14.2303 25.5684C13.8921 25.2302 13.8921 24.6692 14.2303 24.331L24.1298 14.4315C24.468 14.0932 25.029 14.0932 25.3673 14.4315C25.7055 14.7697 25.7055 15.3307 25.3673 15.6689L15.4678 25.5684C15.1295 25.9066 14.5686 25.9066 14.2303 25.5684Z" fill="#42A476"/>
</svg>
