<svg width="58" height="57" viewBox="0 0 58 57" fill="none" xmlns="http://www.w3.org/2000/svg">
<path d="M35.187 36.2393L21.0448 22.0972C20.5616 21.614 20.5616 20.8126 21.0448 20.3294C21.528 19.8463 22.3294 19.8463 22.8126 20.3294L36.9547 34.4716C37.4379 34.9548 37.4379 35.7562 36.9547 36.2393C36.4715 36.7225 35.6702 36.7225 35.187 36.2393Z" fill="#101010"/>
<path d="M21.0453 36.2393C20.5621 35.7562 20.5621 34.9548 21.0453 34.4716L35.1874 20.3294C35.6706 19.8463 36.472 19.8463 36.9552 20.3294C37.4384 20.8126 37.4384 21.614 36.9552 22.0972L22.813 36.2393C22.3298 36.7225 21.5285 36.7225 21.0453 36.2393Z" fill="#101010"/>
</svg>
