<svg width="14" height="15" viewBox="0 0 14 15" fill="none" xmlns="http://www.w3.org/2000/svg">
<path d="M4.3703 12.3564C4.10833 12.4437 3.96675 12.7269 4.05408 12.9888C4.1414 13.2508 4.42456 13.3924 4.68653 13.3051L4.3703 12.3564ZM8.16303 13.073L8.11767 12.5751L8.16303 13.073ZM10.3438 12.5884L10.5631 13.0378L10.3438 12.5884ZM12.4276 10.6928L12.039 10.3781L12.4276 10.6928ZM11.0024 9.50675L11.3559 9.8603L11.0024 9.50675ZM10.0427 10.4664L10.3963 10.82L10.0427 10.4664ZM7.43611 10.3923C7.15997 10.3923 6.93611 10.6161 6.93611 10.8923C6.93611 11.1684 7.15997 11.3923 7.43611 11.3923V10.3923ZM12.206 9.38757L11.9286 9.80359L12.206 9.38757ZM5.26599 9.06963L5.4896 9.51684L5.26599 9.06963ZM7.87439 8.83102L8.00595 8.34864L7.87439 8.83102ZM8.89301 9.10883L8.76146 9.59121L8.89301 9.10883ZM9.21576 10.3241L8.86221 9.9706H8.86221L9.21576 10.3241ZM8.2941 10.5387C8.09883 10.734 8.09883 11.0506 8.2941 11.2458C8.48936 11.4411 8.80594 11.4411 9.0012 11.2458L8.2941 10.5387ZM4.68653 13.3051C4.77087 13.2769 4.93116 13.2616 5.19706 13.2806C5.45274 13.2988 5.75015 13.3435 6.08641 13.3963C6.72953 13.4974 7.5269 13.633 8.2084 13.571L8.11767 12.5751C7.58762 12.6234 6.93115 12.5168 6.24158 12.4085C5.91149 12.3566 5.57285 12.3049 5.26819 12.2831C4.97375 12.2621 4.64943 12.2633 4.3703 12.3564L4.68653 13.3051ZM8.2084 13.571C8.65901 13.5299 9.03203 13.5112 9.37763 13.4486C9.74855 13.3815 10.0974 13.265 10.5631 13.0378L10.1245 12.1391C9.72291 12.3351 9.46193 12.4171 9.19954 12.4646C8.91183 12.5167 8.62809 12.5286 8.11767 12.5751L8.2084 13.571ZM10.5631 13.0378C11.0087 12.8203 11.4422 12.4675 11.8183 12.1061C12.1992 11.7401 12.5458 11.3413 12.8161 11.0075L12.039 10.3781C11.7843 10.6927 11.4664 11.0575 11.1255 11.385C10.7797 11.7173 10.4338 11.9881 10.1245 12.1391L10.5631 13.0378ZM10.6488 9.1532L9.68915 10.1129L10.3963 10.82L11.3559 9.8603L10.6488 9.1532ZM9.01468 10.3923H7.43611V11.3923H9.01468V10.3923ZM9.68915 10.1129C9.51027 10.2918 9.26765 10.3923 9.01468 10.3923V11.3923C9.53287 11.3923 10.0298 11.1864 10.3963 10.82L9.68915 10.1129ZM12.4833 8.97154C11.9067 8.58712 11.1389 8.66315 10.6488 9.1532L11.3559 9.8603C11.5089 9.70732 11.7486 9.68358 11.9286 9.80359L12.4833 8.97154ZM12.8161 11.0075C13.3503 10.348 13.1508 9.41653 12.4833 8.97154L11.9286 9.80359C12.1452 9.94798 12.1736 10.212 12.039 10.3781L12.8161 11.0075ZM1.86303 8.96918H3.80149V7.96918H1.86303V8.96918ZM3.78611 8.9538V13.3153H4.78611V8.9538H3.78611ZM3.80149 13.3H1.86303V14.3H3.80149V13.3ZM1.87842 13.3153V8.9538H0.878418V13.3153H1.87842ZM1.86303 13.3C1.86424 13.3 1.86664 13.3003 1.86917 13.3014C1.87138 13.3023 1.87288 13.3034 1.87391 13.3045C1.87494 13.3055 1.87607 13.307 1.877 13.3092C1.87808 13.3117 1.87842 13.3141 1.87842 13.3153H0.878418C0.878418 13.8591 1.31925 14.3 1.86303 14.3V13.3ZM3.78611 13.3153C3.78611 13.3141 3.78645 13.3117 3.78752 13.3092C3.78846 13.307 3.78959 13.3055 3.79062 13.3045C3.79165 13.3034 3.79315 13.3023 3.79535 13.3014C3.79789 13.3003 3.80029 13.3 3.80149 13.3V14.3C4.34528 14.3 4.78611 13.8591 4.78611 13.3153H3.78611ZM3.80149 8.96918C3.80029 8.96918 3.79789 8.96884 3.79535 8.96777C3.79315 8.96684 3.79165 8.9657 3.79062 8.96468C3.78959 8.96365 3.78846 8.96214 3.78752 8.95994C3.78645 8.9574 3.78611 8.955 3.78611 8.9538H4.78611C4.78611 8.41001 4.34528 7.96918 3.80149 7.96918V8.96918ZM1.86303 7.96918C1.31925 7.96918 0.878418 8.41001 0.878418 8.9538H1.87842C1.87842 8.955 1.87808 8.9574 1.877 8.95994C1.87607 8.96214 1.87494 8.96365 1.87391 8.96468C1.87288 8.9657 1.87138 8.96684 1.86918 8.96777C1.86664 8.96884 1.86424 8.96918 1.86303 8.96918V7.96918ZM4.75202 9.88563L5.4896 9.51684L5.04239 8.62241L4.30481 8.9912L4.75202 9.88563ZM6.78308 9.21149H6.98182V8.21149H6.78308V9.21149ZM7.74284 9.3134L8.76146 9.59121L9.02457 8.62645L8.00595 8.34864L7.74284 9.3134ZM8.86221 9.9706L8.2941 10.5387L9.0012 11.2458L9.56931 10.6777L8.86221 9.9706ZM8.76146 9.59121C8.92955 9.63705 8.98541 9.84739 8.86221 9.9706L9.56931 10.6777C10.2354 10.0116 9.93344 8.87432 9.02457 8.62644L8.76146 9.59121ZM6.98182 9.21149C7.23889 9.21149 7.49482 9.24576 7.74284 9.3134L8.00595 8.34864C7.67219 8.25761 7.32778 8.21149 6.98182 8.21149V9.21149ZM5.4896 9.51684C5.89121 9.31603 6.33406 9.21149 6.78308 9.21149V8.21149C6.17882 8.21149 5.58285 8.35218 5.04239 8.62241L5.4896 9.51684ZM10.0861 5.07687C10.0861 5.87131 9.44209 6.51534 8.64765 6.51534V7.51534C9.99437 7.51534 11.0861 6.4236 11.0861 5.07687H10.0861ZM8.64765 6.51534C7.85321 6.51534 7.20919 5.87131 7.20919 5.07687H6.20919C6.20919 6.4236 7.30092 7.51534 8.64765 7.51534V6.51534ZM7.20919 5.07687C7.20919 4.28243 7.85321 3.63841 8.64765 3.63841V2.63841C7.30092 2.63841 6.20919 3.73015 6.20919 5.07687H7.20919ZM8.64765 3.63841C9.44209 3.63841 10.0861 4.28243 10.0861 5.07687H11.0861C11.0861 3.73015 9.99437 2.63841 8.64765 2.63841V3.63841ZM6.70919 4.57687C5.91475 4.57687 5.27073 3.93285 5.27073 3.13841H4.27073C4.27073 4.48514 5.36246 5.57687 6.70919 5.57687V4.57687ZM5.27073 3.13841C5.27073 2.34397 5.91475 1.69995 6.70919 1.69995V0.699951C5.36246 0.699951 4.27073 1.79169 4.27073 3.13841H5.27073ZM6.70919 1.69995C7.50363 1.69995 8.14765 2.34397 8.14765 3.13841H9.14765C9.14765 1.79169 8.05591 0.699951 6.70919 0.699951V1.69995Z" fill="#42A476"/>
</svg>
