<svg width="14" height="15" viewBox="0 0 14 15" fill="none" xmlns="http://www.w3.org/2000/svg">
<path d="M3.49986 13.7708C3.32486 13.7708 3.13819 13.7533 2.95152 13.7183C2.85236 13.695 2.76486 13.6717 2.67736 13.6483C2.57819 13.6192 2.48485 13.5842 2.39735 13.5492C2.37402 13.5433 2.35653 13.5317 2.33903 13.5258C2.13486 13.4208 1.95986 13.3158 1.80236 13.1992C1.79069 13.1933 1.78486 13.1817 1.7732 13.1758C1.6857 13.1058 1.60402 13.0358 1.52819 12.9542C1.44652 12.8667 1.38818 12.7967 1.32402 12.7267C1.18985 12.5517 1.07902 12.3767 0.979853 12.1725C0.968187 12.155 0.962366 12.1317 0.956533 12.1083C0.921533 12.0267 0.892352 11.945 0.869019 11.8575C0.834019 11.735 0.810682 11.6533 0.793182 11.5658C0.752349 11.3617 0.734863 11.1808 0.734863 11.0058V3.13082C0.734863 2.01665 1.51653 1.23499 2.6307 1.23499H4.3807C5.49486 1.23499 6.27653 2.01665 6.27653 3.13082V11C6.27653 11.7233 5.99653 12.4117 5.48903 12.9308C5.39569 13.0242 5.32568 13.0883 5.26152 13.1408C5.07485 13.3042 4.83569 13.45 4.57903 13.555C4.52069 13.5783 4.45069 13.6075 4.37486 13.6367C4.08902 13.7242 3.79152 13.7708 3.49986 13.7708ZM2.76485 12.75C2.82319 12.7733 2.88153 12.7908 2.93986 12.8083C3.00403 12.8258 3.06819 12.8433 3.13235 12.8608C3.45319 12.9192 3.79736 12.9017 4.07153 12.8083C4.11236 12.7908 4.17069 12.7733 4.22319 12.75C4.40985 12.6742 4.56152 12.5808 4.69568 12.47C4.75402 12.4233 4.79486 12.3825 4.8357 12.3475C5.2032 11.9683 5.39569 11.5017 5.39569 11.0058V3.13082C5.39569 2.50082 5.00486 2.10999 4.37486 2.10999H2.62486C1.99486 2.10999 1.60402 2.50082 1.60402 3.13082V11C1.60402 11.1225 1.6157 11.2508 1.64486 11.385C1.65653 11.4375 1.67402 11.5017 1.69152 11.5717C1.71485 11.6358 1.73236 11.6883 1.7557 11.7467C1.76736 11.7642 1.77318 11.7817 1.77902 11.7933C1.78485 11.805 1.79068 11.8225 1.79652 11.8342C1.86652 11.9625 1.93653 12.0733 2.01236 12.1725C2.0532 12.2192 2.1057 12.2775 2.1582 12.3358C2.22236 12.4058 2.27486 12.4467 2.33319 12.4933C2.33902 12.4992 2.3507 12.505 2.35653 12.5108C2.44986 12.5808 2.55486 12.645 2.67736 12.7092C2.68902 12.715 2.70069 12.715 2.71235 12.7208C2.72402 12.7267 2.74152 12.7383 2.76485 12.75Z" fill="#42A476"/>
<path d="M11.375 13.7708H3.5C3.26083 13.7708 3.0625 13.5725 3.0625 13.3333C3.0625 13.0942 3.26083 12.8958 3.5 12.8958C3.70417 12.8958 3.90251 12.8667 4.07167 12.8083C4.11251 12.7908 4.17083 12.7733 4.22333 12.75C4.40999 12.6742 4.56166 12.5808 4.69583 12.47C4.75416 12.4233 4.795 12.3825 4.83584 12.3475L8.82584 8.36332C8.9075 8.28165 9.01834 8.23499 9.135 8.23499H11.375C12.4892 8.23499 13.2708 9.01665 13.2708 10.1308V11.8808C13.2708 12.9892 12.4892 13.7708 11.375 13.7708ZM5.51833 12.8958H11.375C12.005 12.8958 12.3958 12.505 12.3958 11.875V10.125C12.3958 9.49499 12.005 9.10416 11.375 9.10416H9.31583L5.51833 12.8958Z" fill="#42A476"/>
<path d="M2.80603 13.6658C2.7652 13.6658 2.72437 13.66 2.68354 13.6483C2.25187 13.52 1.85521 13.2808 1.54021 12.96C1.22521 12.6508 0.986034 12.2541 0.8577 11.8225C0.7877 11.5891 0.916034 11.35 1.14937 11.28C1.3827 11.21 1.62187 11.3383 1.6977 11.5658C1.88437 12.1608 2.35103 12.6275 2.94603 12.8141C3.17353 12.8841 3.30187 13.1291 3.23187 13.3625C3.1677 13.5433 2.9927 13.6658 2.80603 13.6658Z" fill="#42A476"/>
<path d="M5.16824 13.065C5.0574 13.065 4.94657 13.0241 4.85907 12.9366C4.6899 12.7675 4.68408 12.4933 4.85325 12.3183C5.20325 11.9625 5.39575 11.49 5.39575 10.9941V5.35912C5.39575 5.24246 5.44241 5.13162 5.52408 5.04996L7.10491 3.46912C7.86907 2.70495 9.02408 2.70495 9.78824 3.46912L11.0249 4.70579C11.8124 5.49329 11.8124 6.60162 11.0249 7.38912L5.47742 12.9308C5.38992 13.0241 5.27907 13.065 5.16824 13.065ZM6.27075 5.54579V10.9066L10.4066 6.77662C10.8499 6.33329 10.8499 5.77912 10.4066 5.32996L9.16991 4.09329C8.73241 3.65579 8.16074 3.65579 7.72324 4.09329L6.27075 5.54579Z" fill="#42A476"/>
<path d="M3.50008 12.0208C2.94008 12.0208 2.47925 11.56 2.47925 11C2.47925 10.44 2.94008 9.97913 3.50008 9.97913C4.06008 9.97913 4.52091 10.44 4.52091 11C4.52091 11.56 4.06008 12.0208 3.50008 12.0208ZM3.50008 10.8541C3.41841 10.8541 3.35425 10.9183 3.35425 11C3.35425 11.1633 3.64591 11.1633 3.64591 11C3.64591 10.9183 3.58175 10.8541 3.50008 10.8541Z" fill="#42A476"/>
</svg>
