<svg width="21" height="21" viewBox="0 0 21 21" fill="none" xmlns="http://www.w3.org/2000/svg">
<path d="M9.03267 18.8459C8.791 18.8459 8.54933 18.8042 8.32433 18.7209C7.28267 18.3792 6.616 17.2292 6.84933 16.1625L7.25767 13.5375C7.266 13.4792 7.266 13.3959 7.20767 13.3292C7.166 13.2875 7.10767 13.2625 7.041 13.2625H3.70767C2.891 13.2625 2.18267 12.9209 1.766 12.3292C1.35767 11.7542 1.27433 10.9959 1.541 10.2625L3.53267 4.19588C3.841 2.98754 5.13267 2.01254 6.466 2.01254H9.63267C10.0993 2.01254 11.116 2.15421 11.6577 2.69588L14.1827 4.64588L13.416 5.63754L10.8327 3.63754C10.6243 3.42921 10.0993 3.26254 9.63267 3.26254H6.466C5.716 3.26254 4.90767 3.86254 4.741 4.53754L2.72433 10.6625C2.591 11.0292 2.616 11.3625 2.791 11.6042C2.97433 11.8625 3.30767 12.0125 3.716 12.0125H7.04933C7.48267 12.0125 7.88267 12.1959 8.15767 12.5125C8.441 12.8375 8.566 13.2709 8.49933 13.7209L8.08267 16.3959C7.98267 16.8625 8.29933 17.3875 8.74933 17.5375C9.14933 17.6875 9.68267 17.4709 9.866 17.2042L13.2827 12.1209L14.316 12.8209L10.8993 17.9042C10.5077 18.4875 9.766 18.8459 9.03267 18.8459Z" fill="#42A476"/>
<path d="M16.3828 15.5125H15.5495C14.0078 15.5125 13.2578 14.7875 13.2578 13.3042V5.13753C13.2578 3.6542 14.0078 2.9292 15.5495 2.9292H16.3828C17.9245 2.9292 18.6745 3.6542 18.6745 5.13753V13.3042C18.6745 14.7875 17.9245 15.5125 16.3828 15.5125ZM15.5495 4.1792C14.6411 4.1792 14.5078 4.39587 14.5078 5.13753V13.3042C14.5078 14.0459 14.6411 14.2625 15.5495 14.2625H16.3828C17.2911 14.2625 17.4245 14.0459 17.4245 13.3042V5.13753C17.4245 4.39587 17.2911 4.1792 16.3828 4.1792H15.5495Z" fill="#42A476"/>
</svg>
