<svg width="28" height="28" viewBox="0 0 28 28" fill="none" xmlns="http://www.w3.org/2000/svg">
<path d="M12.6 25.7832C12.2617 25.7832 11.9233 25.7249 11.6083 25.6082C10.15 25.1299 9.21667 23.5199 9.54334 22.0266L10.115 18.3516C10.1267 18.2699 10.1267 18.1532 10.045 18.0599C9.98667 18.0016 9.905 17.9666 9.81167 17.9666H5.145C4.00167 17.9666 3.01 17.4882 2.42667 16.6599C1.855 15.8549 1.73834 14.7932 2.11167 13.7666L4.9 5.27322C5.33167 3.58155 7.14 2.21655 9.00667 2.21655H13.44C14.0933 2.21655 15.5167 2.41489 16.275 3.17322L19.81 5.90322L18.7367 7.29155L15.12 4.49155C14.8283 4.19989 14.0933 3.96655 13.44 3.96655H9.00667C7.95667 3.96655 6.825 4.80655 6.59167 5.75155L3.76834 14.3266C3.58167 14.8399 3.61667 15.3066 3.86167 15.6449C4.11834 16.0066 4.585 16.2166 5.15667 16.2166H9.82334C10.43 16.2166 10.99 16.4732 11.375 16.9166C11.7717 17.3716 11.9467 17.9782 11.8533 18.6082L11.27 22.3532C11.13 23.0066 11.5733 23.7416 12.2033 23.9516C12.7633 24.1616 13.51 23.8582 13.7667 23.4849L18.55 16.3682L19.9967 17.3482L15.2133 24.4649C14.665 25.2816 13.6267 25.7832 12.6 25.7832Z" fill="#656565"/>
<path d="M22.89 21.1167H21.7233C19.565 21.1167 18.515 20.1017 18.515 18.025V6.59167C18.515 4.515 19.565 3.5 21.7233 3.5H22.89C25.0484 3.5 26.0984 4.515 26.0984 6.59167V18.025C26.0984 20.1017 25.0484 21.1167 22.89 21.1167ZM21.7233 5.25C20.4517 5.25 20.265 5.55333 20.265 6.59167V18.025C20.265 19.0633 20.4517 19.3667 21.7233 19.3667H22.89C24.1617 19.3667 24.3484 19.0633 24.3484 18.025V6.59167C24.3484 5.55333 24.1617 5.25 22.89 5.25H21.7233Z" fill="#656565"/>
</svg>
