<svg width="32" height="32" viewBox="0 0 32 32" fill="none" xmlns="http://www.w3.org/2000/svg">
<path d="M11.5625 19.1064C11.5625 20.8264 12.8825 22.2131 14.5225 22.2131H17.8692C19.2958 22.2131 20.4558 20.9998 20.4558 19.5064C20.4558 17.8798 19.7492 17.3064 18.6958 16.9331L13.3225 15.0664C12.2692 14.6931 11.5625 14.1198 11.5625 12.4931C11.5625 10.9998 12.7225 9.78644 14.1492 9.78644H17.4958C19.1358 9.78644 20.4558 11.1731 20.4558 12.8931" stroke="#42A476" stroke-width="1.5" stroke-linecap="round" stroke-linejoin="round"/>
<path d="M16 8V24" stroke="#42A476" stroke-width="1.5" stroke-linecap="round" stroke-linejoin="round"/>
<path d="M16.0001 29.3334C23.3639 29.3334 29.3334 23.3638 29.3334 16C29.3334 8.63622 23.3639 2.66669 16.0001 2.66669C8.63628 2.66669 2.66675 8.63622 2.66675 16C2.66675 23.3638 8.63628 29.3334 16.0001 29.3334Z" stroke="#42A476" stroke-width="1.5" stroke-linecap="round" stroke-linejoin="round"/>
</svg>
