<svg width="32" height="32" viewBox="0 0 32 32" fill="none" xmlns="http://www.w3.org/2000/svg">
<path d="M26.36 15.0001H20.9733C18.2933 15.0001 17 13.8134 17 11.3601V5.30675C17 2.85341 18.3067 1.66675 20.9733 1.66675H26.36C29.04 1.66675 30.3333 2.85341 30.3333 5.30675V11.3467C30.3333 13.8134 29.0267 15.0001 26.36 15.0001ZM20.9733 3.66675C19.1867 3.66675 19 4.17341 19 5.30675V11.3467C19 12.4934 19.1867 12.9867 20.9733 12.9867H26.36C28.1467 12.9867 28.3333 12.4801 28.3333 11.3467V5.30675C28.3333 4.16008 28.1467 3.66675 26.36 3.66675H20.9733Z" fill="#42A476"/>
<path d="M26.36 30.3333H20.9733C18.2933 30.3333 17 29.0267 17 26.36V20.9733C17 18.2933 18.3067 17 20.9733 17H26.36C29.04 17 30.3333 18.3067 30.3333 20.9733V26.36C30.3333 29.0267 29.0267 30.3333 26.36 30.3333ZM20.9733 19C19.4 19 19 19.4 19 20.9733V26.36C19 27.9333 19.4 28.3333 20.9733 28.3333H26.36C27.9333 28.3333 28.3333 27.9333 28.3333 26.36V20.9733C28.3333 19.4 27.9333 19 26.36 19H20.9733Z" fill="#42A476"/>
<path d="M11.0267 15.0001H5.63999C2.95999 15.0001 1.66666 13.8134 1.66666 11.3601V5.30675C1.66666 2.85341 2.97332 1.66675 5.63999 1.66675H11.0267C13.7067 1.66675 15 2.85341 15 5.30675V11.3467C15 13.8134 13.6933 15.0001 11.0267 15.0001ZM5.63999 3.66675C3.85332 3.66675 3.66666 4.17341 3.66666 5.30675V11.3467C3.66666 12.4934 3.85332 12.9867 5.63999 12.9867H11.0267C12.8133 12.9867 13 12.4801 13 11.3467V5.30675C13 4.16008 12.8133 3.66675 11.0267 3.66675H5.63999Z" fill="#42A476"/>
<path d="M11.0267 30.3333H5.63999C2.95999 30.3333 1.66666 29.0267 1.66666 26.36V20.9733C1.66666 18.2933 2.97332 17 5.63999 17H11.0267C13.7067 17 15 18.3067 15 20.9733V26.36C15 29.0267 13.6933 30.3333 11.0267 30.3333ZM5.63999 19C4.06666 19 3.66666 19.4 3.66666 20.9733V26.36C3.66666 27.9333 4.06666 28.3333 5.63999 28.3333H11.0267C12.6 28.3333 13 27.9333 13 26.36V20.9733C13 19.4 12.6 19 11.0267 19H5.63999Z" fill="#42A476"/>
</svg>
