<svg width="32" height="32" viewBox="0 0 32 32" fill="none" xmlns="http://www.w3.org/2000/svg">
<path d="M9.33343 23.1667C9.20009 23.1667 9.07341 23.1133 8.98007 23.02C8.85341 22.8933 8.80011 22.7067 8.84677 22.5333L9.68678 19.3933C9.12678 18.3533 8.83343 17.18 8.83343 15.9933C8.83343 12.04 12.0468 8.82666 16.0001 8.82666C19.9534 8.82666 23.1668 12.04 23.1668 15.9933C23.1668 19.9467 19.9534 23.16 16.0001 23.16C14.7934 23.16 13.6134 22.86 12.5601 22.2867L9.46677 23.1467C9.4201 23.16 9.38009 23.1667 9.33343 23.1667ZM12.6268 21.2533C12.7134 21.2533 12.8001 21.28 12.8801 21.32C13.8201 21.8733 14.9001 22.1667 16.0001 22.1667C19.4001 22.1667 22.1668 19.4 22.1668 16C22.1668 12.6 19.4001 9.83333 16.0001 9.83333C12.6001 9.83333 9.83343 12.6 9.83343 16C9.83343 17.0867 10.1201 18.1467 10.6601 19.08C10.7268 19.1933 10.7468 19.3333 10.7134 19.46L10.0468 21.9533L12.5001 21.2733C12.5401 21.26 12.5868 21.2533 12.6268 21.2533Z" fill="white"/>
<path d="M17.8266 19.84C17.4132 19.84 16.9866 19.7467 16.5399 19.5534C16.1199 19.3734 15.6999 19.1334 15.2933 18.8334C14.8933 18.54 14.4999 18.2067 14.1399 17.8467C13.7799 17.48 13.4466 17.0934 13.1532 16.6934C12.8532 16.2734 12.6132 15.86 12.4399 15.4534C12.2532 15.0134 12.1599 14.58 12.1599 14.1667C12.1599 13.8734 12.2132 13.5934 12.3132 13.3334C12.4199 13.06 12.5932 12.8134 12.8199 12.6C13.2466 12.18 13.8599 12.0267 14.3466 12.26C14.5133 12.3334 14.6533 12.4534 14.7599 12.6134L15.5332 13.7C15.6132 13.8067 15.6733 13.92 15.7199 14.0334C15.7733 14.1667 15.8066 14.3 15.8066 14.4267C15.8066 14.6 15.7599 14.7734 15.6666 14.9267C15.6066 15.0267 15.5199 15.1467 15.4066 15.26L15.3199 15.3534C15.3599 15.4067 15.4066 15.4734 15.4799 15.5534C15.6199 15.7134 15.7732 15.8867 15.9399 16.0534C16.1066 16.2134 16.2732 16.3734 16.4399 16.5134C16.5199 16.58 16.5866 16.6334 16.6399 16.6667L16.7332 16.5734C16.8532 16.4534 16.9733 16.36 17.0933 16.3C17.3133 16.16 17.6532 16.1267 17.9532 16.2534C18.0599 16.2934 18.1666 16.3534 18.2799 16.4334L19.3933 17.22C19.5466 17.3267 19.6666 17.4734 19.7466 17.64C19.8132 17.8067 19.8399 17.9534 19.8399 18.1067C19.8399 18.3067 19.7933 18.5 19.7066 18.6867C19.6199 18.86 19.5199 19.0134 19.3999 19.1534C19.1866 19.3867 18.9399 19.56 18.6733 19.6734C18.4066 19.7867 18.1199 19.84 17.8266 19.84ZM13.8599 13.16C13.8199 13.16 13.6866 13.16 13.5199 13.3267C13.3933 13.4467 13.3066 13.5734 13.2466 13.7134C13.1866 13.8534 13.1599 14.0134 13.1599 14.1734C13.1599 14.4534 13.2266 14.7534 13.3599 15.0734C13.4999 15.4067 13.7066 15.76 13.9599 16.1134C14.2199 16.4667 14.5133 16.82 14.8399 17.1467C15.1666 17.4667 15.5133 17.7667 15.8733 18.0334C16.2199 18.2867 16.5733 18.4867 16.9266 18.64C17.4333 18.86 17.8999 18.9134 18.2799 18.7534C18.4132 18.7 18.5332 18.6067 18.6532 18.4867C18.7132 18.42 18.7599 18.3534 18.7999 18.2667C18.8199 18.22 18.8333 18.1667 18.8333 18.12C18.8333 18.1067 18.8332 18.0867 18.8132 18.0467L17.6999 17.2734C17.6532 17.24 17.6066 17.2134 17.5666 17.2C17.5399 17.2134 17.4999 17.2334 17.4266 17.3067L17.1733 17.56C16.9799 17.7534 16.6733 17.8067 16.4266 17.72L16.3066 17.6667C16.1533 17.5867 15.9799 17.4667 15.7866 17.3C15.5999 17.14 15.4199 16.9734 15.2266 16.7867C15.0399 16.5934 14.8733 16.4134 14.7133 16.2267C14.5399 16.02 14.4199 15.8534 14.3399 15.7134L14.2666 15.54C14.2466 15.4734 14.2399 15.4 14.2399 15.3334C14.2399 15.1467 14.3066 14.98 14.4333 14.8467L14.6866 14.5867C14.7599 14.5134 14.7866 14.4734 14.7999 14.4467C14.7799 14.4 14.7533 14.36 14.7199 14.3134L13.9399 13.2134L13.8599 13.16Z" fill="white"/>
<rect x="0.5" y="31.5" width="31" height="31" rx="15.5" transform="rotate(-90 0.5 31.5)" stroke="white"/>
</svg>
