<svg width="32" height="32" viewBox="0 0 32 32" fill="none" xmlns="http://www.w3.org/2000/svg">
<path d="M19.6333 23.1666C18.8799 23.1666 18.0866 22.9866 17.2666 22.6399C16.4666 22.2999 15.6599 21.8333 14.8733 21.2666C14.0933 20.6933 13.3399 20.0533 12.6266 19.3533C11.9199 18.6399 11.2799 17.8866 10.7133 17.1133C10.1399 16.3133 9.67992 15.5133 9.35325 14.7399C9.00659 13.9133 8.83325 13.1133 8.83325 12.3599C8.83325 11.8399 8.92659 11.3466 9.10659 10.8866C9.29325 10.4133 9.59325 9.97325 9.99992 9.59325C10.5133 9.08659 11.0999 8.83325 11.7266 8.83325C11.9866 8.83325 12.2533 8.89325 12.4799 8.99992C12.7399 9.11992 12.9599 9.29992 13.1199 9.53992L14.6666 11.7199C14.8066 11.9133 14.9133 12.0999 14.9866 12.2866C15.0733 12.4866 15.1199 12.6866 15.1199 12.8799C15.1199 13.1333 15.0466 13.3799 14.9066 13.6133C14.8066 13.7933 14.6533 13.9866 14.4599 14.1799L14.0066 14.6533C14.0133 14.6733 14.0199 14.6866 14.0266 14.6999C14.1066 14.8399 14.2666 15.0799 14.5733 15.4399C14.8999 15.8133 15.2066 16.1533 15.5133 16.4666C15.9066 16.8533 16.2333 17.1599 16.5399 17.4133C16.9199 17.7333 17.1666 17.8933 17.3133 17.9666L17.2999 17.9999L17.7866 17.5199C17.9933 17.3133 18.1933 17.1599 18.3866 17.0599C18.7533 16.8333 19.2199 16.7933 19.6866 16.9866C19.8599 17.0599 20.0466 17.1599 20.2466 17.2999L22.4599 18.8733C22.7066 19.0399 22.8866 19.2533 22.9933 19.5066C23.0933 19.7599 23.1399 19.9933 23.1399 20.2266C23.1399 20.5466 23.0666 20.8666 22.9266 21.1666C22.7866 21.4666 22.6133 21.7266 22.3933 21.9666C22.0133 22.3866 21.5999 22.6866 21.1199 22.8799C20.6599 23.0666 20.1599 23.1666 19.6333 23.1666ZM11.7266 9.83325C11.3599 9.83325 11.0199 9.99325 10.6933 10.3133C10.3866 10.5999 10.1733 10.9133 10.0399 11.2533C9.89992 11.5999 9.83325 11.9666 9.83325 12.3599C9.83325 12.9799 9.97992 13.6533 10.2733 14.3466C10.5733 15.0533 10.9933 15.7866 11.5266 16.5199C12.0599 17.2533 12.6666 17.9666 13.3333 18.6399C13.9999 19.2999 14.7199 19.9133 15.4599 20.4533C16.1799 20.9799 16.9199 21.4066 17.6533 21.7133C18.7933 22.1999 19.8599 22.3133 20.7399 21.9466C21.0799 21.8066 21.3799 21.5933 21.6533 21.2866C21.8066 21.1199 21.9266 20.9399 22.0266 20.7266C22.1066 20.5599 22.1466 20.3866 22.1466 20.2133C22.1466 20.1066 22.1266 19.9999 22.0733 19.8799C22.0533 19.8399 22.0133 19.7666 21.8866 19.6799L19.6733 18.1066C19.5399 18.0133 19.4199 17.9466 19.3066 17.8999C19.1599 17.8399 19.0999 17.7799 18.8733 17.9199C18.7399 17.9866 18.6199 18.0866 18.4866 18.2199L17.9799 18.7199C17.7199 18.9733 17.3199 19.0333 17.0133 18.9199L16.8333 18.8399C16.5599 18.6933 16.2399 18.4666 15.8866 18.1666C15.5666 17.8933 15.2199 17.5733 14.7999 17.1599C14.4733 16.8266 14.1466 16.4733 13.8066 16.0799C13.4933 15.7133 13.2666 15.3999 13.1266 15.1399L13.0466 14.9399C13.0066 14.7866 12.9933 14.6999 12.9933 14.6066C12.9933 14.3666 13.0799 14.1533 13.2466 13.9866L13.7466 13.4666C13.8799 13.3333 13.9799 13.2066 14.0466 13.0933C14.0999 13.0066 14.1199 12.9333 14.1199 12.8666C14.1199 12.8133 14.0999 12.7333 14.0666 12.6533C14.0199 12.5466 13.9466 12.4266 13.8533 12.2999L12.3066 10.1133C12.2399 10.0199 12.1599 9.95325 12.0599 9.90659C11.9533 9.85992 11.8399 9.83325 11.7266 9.83325ZM17.2999 18.0066L17.1933 18.4599L17.3733 17.9933C17.3399 17.9866 17.3133 17.9933 17.2999 18.0066Z" fill="white"/>
<rect x="0.5" y="31.5" width="31" height="31" rx="15.5" transform="rotate(-90 0.5 31.5)" stroke="white"/>
</svg>
