<svg width="32" height="32" viewBox="0 0 32 32" fill="none" xmlns="http://www.w3.org/2000/svg">
<path d="M17.9999 23.1666H13.9999C10.3799 23.1666 8.83325 21.6199 8.83325 17.9999V13.9999C8.83325 10.3799 10.3799 8.83325 13.9999 8.83325H17.9999C21.6199 8.83325 23.1666 10.3799 23.1666 13.9999V17.9999C23.1666 21.6199 21.6199 23.1666 17.9999 23.1666ZM13.9999 9.83325C10.9266 9.83325 9.83325 10.9266 9.83325 13.9999V17.9999C9.83325 21.0733 10.9266 22.1666 13.9999 22.1666H17.9999C21.0733 22.1666 22.1666 21.0733 22.1666 17.9999V13.9999C22.1666 10.9266 21.0733 9.83325 17.9999 9.83325H13.9999Z" fill="white"/>
<path d="M16.0001 18.8334C14.4401 18.8334 13.1667 17.5601 13.1667 16.0001C13.1667 14.4401 14.4401 13.1667 16.0001 13.1667C17.5601 13.1667 18.8334 14.4401 18.8334 16.0001C18.8334 17.5601 17.5601 18.8334 16.0001 18.8334ZM16.0001 14.1667C14.9867 14.1667 14.1667 14.9867 14.1667 16.0001C14.1667 17.0134 14.9867 17.8334 16.0001 17.8334C17.0134 17.8334 17.8334 17.0134 17.8334 16.0001C17.8334 14.9867 17.0134 14.1667 16.0001 14.1667Z" fill="white"/>
<path d="M19.3334 12.9999C19.2467 12.9999 19.1601 12.9799 19.0801 12.9466C19.0001 12.9133 18.9267 12.8666 18.8601 12.8066C18.8001 12.7399 18.7467 12.6666 18.7134 12.5866C18.6801 12.5066 18.6667 12.4199 18.6667 12.3333C18.6667 12.2466 18.6801 12.1599 18.7134 12.0799C18.7534 11.9933 18.8001 11.9266 18.8601 11.8599C18.8934 11.8333 18.9267 11.7999 18.9601 11.7799C19.0001 11.7533 19.0401 11.7333 19.0801 11.7199C19.1201 11.6999 19.1601 11.6866 19.2067 11.6799C19.4201 11.6333 19.6467 11.7066 19.8067 11.8599C19.8667 11.9266 19.9134 11.9933 19.9467 12.0799C19.9801 12.1599 20.0001 12.2466 20.0001 12.3333C20.0001 12.4199 19.9801 12.5066 19.9467 12.5866C19.9134 12.6666 19.8667 12.7399 19.8067 12.8066C19.7401 12.8666 19.6667 12.9133 19.5867 12.9466C19.5067 12.9799 19.4201 12.9999 19.3334 12.9999Z" fill="white"/>
<rect x="0.5" y="31.5" width="31" height="31" rx="15.5" transform="rotate(-90 0.5 31.5)" stroke="white"/>
</svg>
