<svg width="20" height="20" viewBox="0 0 20 20" fill="none" xmlns="http://www.w3.org/2000/svg">
<path d="M10.0003 18.9584C5.05866 18.9584 1.04199 14.9417 1.04199 10.0001C1.04199 5.05841 5.05866 1.04175 10.0003 1.04175C14.942 1.04175 18.9587 5.05841 18.9587 10.0001C18.9587 10.3417 18.6753 10.6251 18.3337 10.6251C17.992 10.6251 17.7087 10.3417 17.7087 10.0001C17.7087 5.75008 14.2503 2.29175 10.0003 2.29175C5.75033 2.29175 2.29199 5.75008 2.29199 10.0001C2.29199 14.2501 5.75033 17.7084 10.0003 17.7084C10.342 17.7084 10.6253 17.9917 10.6253 18.3334C10.6253 18.6751 10.342 18.9584 10.0003 18.9584Z" fill="#42A476"/>
<path d="M7.5002 18.125H6.66687C6.3252 18.125 6.04187 17.8417 6.04187 17.5C6.04187 17.1583 6.30853 16.8833 6.6502 16.875C5.34186 12.4083 5.34186 7.59167 6.6502 3.125C6.31686 3.11667 6.04187 2.84167 6.04187 2.5C6.04187 2.15833 6.3252 1.875 6.66687 1.875H7.5002C7.7002 1.875 7.89187 1.975 8.00853 2.13333C8.1252 2.3 8.15854 2.50833 8.09187 2.69999C6.5252 7.40833 6.5252 12.6 8.09187 17.3083C8.15854 17.5 8.1252 17.7083 8.00853 17.875C7.89187 18.0417 7.7002 18.125 7.5002 18.125Z" fill="#42A476"/>
<path d="M13.7164 10.625C13.3747 10.625 13.0914 10.3416 13.0914 9.99997C13.0914 7.51664 12.6914 5.0583 11.908 2.69996C11.7997 2.37496 11.9747 2.01662 12.2997 1.90828C12.6247 1.79995 12.9831 1.97498 13.0914 2.29998C13.9164 4.78331 14.3414 7.37497 14.3414 9.99997C14.3414 10.3416 14.0581 10.625 13.7164 10.625Z" fill="#42A476"/>
<path d="M10 14.3416C7.66667 14.3416 5.35833 14.0083 3.125 13.3499C3.11667 13.6833 2.84167 13.9583 2.5 13.9583C2.15833 13.9583 1.875 13.6749 1.875 13.3333V12.4999C1.875 12.2999 1.975 12.1083 2.13333 11.9916C2.3 11.8749 2.50834 11.8416 2.7 11.9082C5.05834 12.6916 7.51667 13.0916 10 13.0916C10.3417 13.0916 10.625 13.3749 10.625 13.7166C10.625 14.0583 10.3417 14.3416 10 14.3416Z" fill="#42A476"/>
<path d="M17.5002 8.12499C17.4336 8.12499 17.3669 8.11667 17.3002 8.09167C12.5919 6.525 7.40023 6.525 2.6919 8.09167C2.3669 8.2 2.00856 8.02498 1.90023 7.69998C1.7919 7.37498 1.9669 7.01663 2.2919 6.9083C7.25857 5.24997 12.7252 5.24997 17.6836 6.9083C18.0086 7.01663 18.1836 7.37498 18.0752 7.69998C18.0086 7.95831 17.7586 8.12499 17.5002 8.12499Z" fill="#42A476"/>
<path d="M15.1667 18.4584C13.35 18.4584 11.875 16.9833 11.875 15.1667C11.875 13.35 13.35 11.875 15.1667 11.875C16.9833 11.875 18.4583 13.35 18.4583 15.1667C18.4583 16.9833 16.9833 18.4584 15.1667 18.4584ZM15.1667 13.125C14.0417 13.125 13.125 14.0417 13.125 15.1667C13.125 16.2917 14.0417 17.2084 15.1667 17.2084C16.2917 17.2084 17.2083 16.2917 17.2083 15.1667C17.2083 14.0417 16.2917 13.125 15.1667 13.125Z" fill="#42A476"/>
<path d="M18.3332 18.9582C18.1749 18.9582 18.0165 18.8999 17.8915 18.7749L17.0582 17.9416C16.8165 17.6999 16.8165 17.2999 17.0582 17.0582C17.2999 16.8165 17.6999 16.8165 17.9415 17.0582L18.7749 17.8915C19.0165 18.1332 19.0165 18.5333 18.7749 18.7749C18.6499 18.8999 18.4915 18.9582 18.3332 18.9582Z" fill="#42A476"/>
</svg>
