<svg width="20" height="20" viewBox="0 0 20 20" fill="none" xmlns="http://www.w3.org/2000/svg">
<path d="M10 16.875C6.20833 16.875 3.125 13.7917 3.125 10C3.125 6.20833 6.20833 3.125 10 3.125C13.7917 3.125 16.875 6.20833 16.875 10C16.875 13.7917 13.7917 16.875 10 16.875ZM10 4.375C6.9 4.375 4.375 6.9 4.375 10C4.375 13.1 6.9 15.625 10 15.625C13.1 15.625 15.625 13.1 15.625 10C15.625 6.9 13.1 4.375 10 4.375Z" fill="#42A476"/>
<path d="M10 13.125C8.275 13.125 6.875 11.725 6.875 10C6.875 8.275 8.275 6.875 10 6.875C11.725 6.875 13.125 8.275 13.125 10C13.125 11.725 11.725 13.125 10 13.125ZM10 8.125C8.96667 8.125 8.125 8.96667 8.125 10C8.125 11.0333 8.96667 11.875 10 11.875C11.0333 11.875 11.875 11.0333 11.875 10C11.875 8.96667 11.0333 8.125 10 8.125Z" fill="#42A476"/>
<path d="M10 3.95841C9.65833 3.95841 9.375 3.67508 9.375 3.33341V1.66675C9.375 1.32508 9.65833 1.04175 10 1.04175C10.3417 1.04175 10.625 1.32508 10.625 1.66675V3.33341C10.625 3.67508 10.3417 3.95841 10 3.95841Z" fill="#42A476"/>
<path d="M3.33366 10.625H1.66699C1.32533 10.625 1.04199 10.3417 1.04199 10C1.04199 9.65833 1.32533 9.375 1.66699 9.375H3.33366C3.67533 9.375 3.95866 9.65833 3.95866 10C3.95866 10.3417 3.67533 10.625 3.33366 10.625Z" fill="#42A476"/>
<path d="M10 18.9584C9.65833 18.9584 9.375 18.6751 9.375 18.3334V16.6667C9.375 16.3251 9.65833 16.0417 10 16.0417C10.3417 16.0417 10.625 16.3251 10.625 16.6667V18.3334C10.625 18.6751 10.3417 18.9584 10 18.9584Z" fill="#42A476"/>
<path d="M18.3337 10.625H16.667C16.3253 10.625 16.042 10.3417 16.042 10C16.042 9.65833 16.3253 9.375 16.667 9.375H18.3337C18.6753 9.375 18.9587 9.65833 18.9587 10C18.9587 10.3417 18.6753 10.625 18.3337 10.625Z" fill="#42A476"/>
</svg>
