<svg width="26" height="26" viewBox="0 0 26 26" fill="none" xmlns="http://www.w3.org/2000/svg">
<path d="M6.72909 11.25L6.72909 14.75C6.72909 17.9175 8.08242 19.2709 11.2499 19.2709L14.7499 19.2709C17.9174 19.2709 19.2708 17.9175 19.2708 14.75L19.2708 11.25C19.2708 8.08254 17.9174 6.72921 14.7499 6.72921L11.2499 6.72921C8.08242 6.72921 6.72909 8.08254 6.72909 11.25ZM18.3958 14.75C18.3958 17.4392 17.4391 18.3959 14.7499 18.3959L11.2499 18.3959C8.56075 18.3959 7.60409 17.4392 7.60409 14.75L7.60409 11.25C7.60409 8.56087 8.56075 7.60421 11.2499 7.60421L14.7499 7.60421C17.4391 7.60421 18.3958 8.56087 18.3958 11.25L18.3958 14.75Z" fill="#42A476"/>
<path d="M10.5209 13C10.5209 14.365 11.6351 15.4791 13.0001 15.4791C14.3651 15.4791 15.4792 14.365 15.4792 13C15.4792 11.635 14.3651 10.5208 13.0001 10.5208C11.6351 10.5208 10.5209 11.635 10.5209 13ZM14.6042 13C14.6042 13.8866 13.8867 14.6041 13.0001 14.6041C12.1134 14.6041 11.3959 13.8866 11.3959 13C11.3959 12.1133 12.1134 11.3958 13.0001 11.3958C13.8867 11.3958 14.6042 12.1133 14.6042 13Z" fill="#42A476"/>
<path d="M15.6251 10.0833C15.6251 10.1591 15.6426 10.235 15.6717 10.305C15.7009 10.375 15.7417 10.4391 15.7942 10.4975C15.8526 10.55 15.9167 10.5966 15.9867 10.6258C16.0567 10.655 16.1326 10.6666 16.2084 10.6666C16.2842 10.6666 16.3601 10.655 16.4301 10.6258C16.5059 10.5908 16.5642 10.55 16.6226 10.4975C16.6459 10.4683 16.6751 10.4391 16.6926 10.41C16.7159 10.375 16.7334 10.34 16.7451 10.305C16.7626 10.27 16.7742 10.235 16.7801 10.1941C16.8209 10.0075 16.7567 9.80913 16.6226 9.66913C16.5642 9.61663 16.5059 9.57579 16.4301 9.54663C16.3601 9.51746 16.2842 9.49996 16.2084 9.49996C16.1326 9.49996 16.0567 9.51746 15.9867 9.54663C15.9167 9.57579 15.8526 9.61663 15.7942 9.66913C15.7417 9.72746 15.7009 9.79163 15.6717 9.86163C15.6426 9.93163 15.6251 10.0075 15.6251 10.0833Z" fill="#42A476"/>
<rect x="-0.5" y="-0.5" width="25" height="25" rx="12.5" transform="matrix(-4.37114e-08 -1 -1 4.37114e-08 25 25)" stroke="#42A476"/>
</svg>
