<svg width="28" height="28" viewBox="0 0 28 28" fill="none" xmlns="http://www.w3.org/2000/svg">
<path d="M18.9933 25.7834H14.56C13.9066 25.7834 12.4833 25.5851 11.725 24.8267L8.18996 22.0967L9.2633 20.7084L12.88 23.5084C13.1716 23.7884 13.9066 24.0217 14.56 24.0217H18.9933C20.0433 24.0217 21.175 23.1817 21.4083 22.2367L24.2316 13.6617C24.4183 13.1484 24.3833 12.6817 24.1383 12.3434C23.8816 11.9817 23.415 11.7717 22.8433 11.7717H18.1766C17.57 11.7717 17.01 11.5151 16.625 11.0717C16.2283 10.6167 16.0533 10.0101 16.1466 9.38007L16.73 5.63507C16.87 4.98174 16.4266 4.24674 15.7966 4.03674C15.225 3.82674 14.49 4.13007 14.2333 4.5034L9.44996 11.6201L8.0033 10.6517L12.7866 3.53507C13.5216 2.4384 15.1316 1.9134 16.3916 2.39174C17.85 2.87007 18.7833 4.48007 18.4566 5.9734L17.885 9.6484C17.8733 9.73007 17.8733 9.84674 17.955 9.94007C18.0133 9.9984 18.095 10.0334 18.1883 10.0334H22.855C23.9983 10.0334 24.99 10.5117 25.5733 11.3401C26.145 12.1451 26.2616 13.2067 25.8883 14.2334L23.1 22.7267C22.6683 24.4184 20.8716 25.7834 18.9933 25.7834Z" fill="#656565"/>
<path d="M6.27661 24.5H5.10994C2.95161 24.5 1.90161 23.485 1.90161 21.4083V9.97497C1.90161 7.8983 2.95161 6.8833 5.10994 6.8833H6.27661C8.43494 6.8833 9.48494 7.8983 9.48494 9.97497V21.4083C9.48494 23.485 8.43494 24.5 6.27661 24.5ZM5.10994 8.6333C3.83828 8.6333 3.65161 8.93663 3.65161 9.97497V21.4083C3.65161 22.4466 3.83828 22.75 5.10994 22.75H6.27661C7.54828 22.75 7.73494 22.4466 7.73494 21.4083V9.97497C7.73494 8.93663 7.54828 8.6333 6.27661 8.6333H5.10994Z" fill="#656565"/>
</svg>
