<svg width="21" height="21" viewBox="0 0 21 21" fill="none" xmlns="http://www.w3.org/2000/svg">
<path d="M13.5993 18.8459H10.4326C9.96593 18.8459 8.94927 18.7042 8.4076 18.1625L5.8826 16.2125L6.64927 15.2209L9.2326 17.2209C9.44093 17.4209 9.96593 17.5875 10.4326 17.5875H13.5993C14.3493 17.5875 15.1576 16.9875 15.3243 16.3125L17.3409 10.1875C17.4743 9.82087 17.4493 9.48753 17.2743 9.24587C17.0909 8.98753 16.7576 8.83754 16.3493 8.83754H13.0159C12.5826 8.83754 12.1826 8.6542 11.9076 8.33753C11.6243 8.01253 11.4993 7.5792 11.5659 7.1292L11.9826 4.4542C12.0826 3.98753 11.7659 3.46253 11.3159 3.31253C10.9076 3.16253 10.3826 3.3792 10.1993 3.64587L6.7826 8.7292L5.74927 8.03753L9.16593 2.9542C9.69093 2.17087 10.8409 1.79587 11.7409 2.13753C12.7826 2.4792 13.4493 3.6292 13.2159 4.69587L12.8076 7.32087C12.7993 7.3792 12.7993 7.46253 12.8576 7.5292C12.8993 7.57087 12.9576 7.59587 13.0243 7.59587H16.3576C17.1743 7.59587 17.8826 7.93753 18.2993 8.5292C18.7076 9.1042 18.7909 9.86253 18.5243 10.5959L16.5326 16.6625C16.2243 17.8709 14.9409 18.8459 13.5993 18.8459Z" fill="#42A476"/>
<path d="M4.51611 17.9292H3.68278C2.14111 17.9292 1.39111 17.2042 1.39111 15.7209V7.55419C1.39111 6.07086 2.14111 5.34586 3.68278 5.34586H4.51611C6.05778 5.34586 6.80778 6.07086 6.80778 7.55419V15.7209C6.80778 17.2042 6.05778 17.9292 4.51611 17.9292ZM3.68278 6.59586C2.77445 6.59586 2.64111 6.81252 2.64111 7.55419V15.7209C2.64111 16.4625 2.77445 16.6792 3.68278 16.6792H4.51611C5.42445 16.6792 5.55778 16.4625 5.55778 15.7209V7.55419C5.55778 6.81252 5.42445 6.59586 4.51611 6.59586H3.68278Z" fill="#42A476"/>
</svg>
