<svg width="12" height="11" viewBox="0 0 12 11" fill="none" xmlns="http://www.w3.org/2000/svg">
<path d="M6 10.325C5.845 10.325 5.695 10.305 5.57 10.26C3.66 9.60505 0.625 7.28005 0.625 3.84505C0.625 2.09505 2.04 0.675049 3.78 0.675049C4.625 0.675049 5.415 1.00505 6 1.59505C6.585 1.00505 7.375 0.675049 8.22 0.675049C9.96 0.675049 11.375 2.10005 11.375 3.84505C11.375 7.28505 8.34 9.60505 6.43 10.26C6.305 10.305 6.155 10.325 6 10.325ZM3.78 1.42505C2.455 1.42505 1.375 2.51005 1.375 3.84505C1.375 7.26005 4.66 9.16005 5.815 9.55505C5.905 9.58505 6.1 9.58505 6.19 9.55505C7.34 9.16005 10.63 7.26505 10.63 3.84505C10.63 2.51005 9.55 1.42505 8.225 1.42505C7.465 1.42505 6.76 1.78005 6.305 2.39505C6.165 2.58505 5.845 2.58505 5.705 2.39505C5.24 1.77505 4.54 1.42505 3.78 1.42505Z" fill="#5A5A5A"/>
</svg>
