<svg width="40" height="40" viewBox="0 0 40 40" fill="none" xmlns="http://www.w3.org/2000/svg">
<path d="M20 23.6167C16.45 23.6167 13.55 20.7333 13.55 17.1667C13.55 13.6 16.45 10.7333 20 10.7333C23.55 10.7333 26.45 13.6167 26.45 17.1833C26.45 20.75 23.55 23.6167 20 23.6167ZM20 13.2333C17.8334 13.2333 16.05 15 16.05 17.1833C16.05 19.3667 17.8167 21.1333 20 21.1333C22.1834 21.1333 23.95 19.3667 23.95 17.1833C23.95 15 22.1667 13.2333 20 13.2333Z" fill="#42A476"/>
<path d="M20 37.9333C17.5334 37.9333 15.05 37 13.1167 35.15C8.20005 30.4166 2.76672 22.8666 4.81672 13.8833C6.66672 5.73331 13.7834 2.08331 20 2.08331C20 2.08331 20 2.08331 20.0167 2.08331C26.2334 2.08331 33.35 5.73331 35.2 13.9C37.2334 22.8833 31.8 30.4166 26.8834 35.15C24.95 37 22.4667 37.9333 20 37.9333ZM20 4.58331C15.15 4.58331 8.91672 7.16665 7.26672 14.4333C5.46672 22.2833 10.4 29.05 14.8667 33.3333C17.75 36.1166 22.2667 36.1166 25.15 33.3333C29.6 29.05 34.5334 22.2833 32.7667 14.4333C31.1 7.16665 24.85 4.58331 20 4.58331Z" fill="#42A476"/>
</svg>
