<svg width="33" height="32" viewBox="0 0 33 32" fill="none" xmlns="http://www.w3.org/2000/svg">
<path d="M24.3268 29.16C23.9134 29.16 23.5001 29.0533 23.1268 28.8266L17.7801 25.6533C17.2201 25.64 16.6601 25.6 16.1268 25.52C15.7668 25.4667 15.4601 25.2266 15.3268 24.8799C15.1934 24.5333 15.2601 24.1599 15.5001 23.8799C16.3801 22.8533 16.8334 21.6266 16.8334 20.32C16.8334 17.0933 13.9934 14.4666 10.5001 14.4666C9.19343 14.4666 7.94009 14.8267 6.88676 15.52C6.59343 15.7067 6.23343 15.7333 5.91343 15.5866C5.60677 15.44 5.38011 15.1466 5.34011 14.7999C5.30011 14.4266 5.27344 14.0533 5.27344 13.6666C5.27344 7.05331 11.0068 1.67999 18.0468 1.67999C25.0868 1.67999 30.8201 7.05331 30.8201 13.6666C30.8201 17.2933 29.1401 20.6266 26.1801 22.9066L26.6334 26.5333C26.7401 27.44 26.3401 28.2934 25.5801 28.7867C25.2068 29.0267 24.7668 29.16 24.3268 29.16ZM18.0334 23.64C18.2201 23.6266 18.4068 23.68 18.5668 23.7867L24.1534 27.1067C24.3001 27.2 24.4201 27.16 24.5001 27.1067C24.5668 27.0667 24.6734 26.96 24.6468 26.7733L24.1268 22.56C24.0868 22.1866 24.2468 21.8267 24.5401 21.6133C27.2601 19.7067 28.8201 16.8 28.8201 13.64C28.8201 8.13329 23.9934 3.6533 18.0468 3.6533C12.3268 3.6533 7.63343 7.81335 7.28676 13.04C8.28676 12.6534 9.36678 12.44 10.4868 12.44C15.0868 12.44 18.8201 15.9599 18.8201 20.2933C18.8334 21.4666 18.5534 22.6 18.0334 23.64Z" fill="#42A476"/>
<path d="M6.60636 30.3334C6.2597 30.3334 5.92636 30.2401 5.61969 30.0401C5.01969 29.6534 4.6997 28.9868 4.7797 28.2801L5.04637 26.2267C3.24637 24.76 2.17969 22.5867 2.17969 20.3067C2.17969 17.7067 3.5397 15.2801 5.8197 13.8267C7.19304 12.9334 8.81969 12.4534 10.513 12.4534C15.113 12.4534 18.8464 15.9734 18.8464 20.3067C18.8464 22.0667 18.2064 23.8001 17.033 25.1734C15.5264 27.0001 13.273 28.0667 10.793 28.1467L7.53969 30.0801C7.24636 30.2534 6.92636 30.3334 6.60636 30.3334ZM10.4997 14.4534C9.19303 14.4534 7.93969 14.8134 6.88635 15.5067C5.17969 16.6001 4.16636 18.3867 4.16636 20.3067C4.16636 22.16 5.07303 23.8534 6.67303 24.9468C6.9797 25.1601 7.13969 25.52 7.09969 25.8934L6.80636 28.1734L9.99302 26.2801C10.153 26.1868 10.3264 26.1334 10.4997 26.1334C12.4597 26.1334 14.313 25.2934 15.4864 23.8668C16.3664 22.8268 16.833 21.6 16.833 20.2934C16.833 17.08 13.993 14.4534 10.4997 14.4534Z" fill="#42A476"/>
</svg>
