<svg width="36" height="36" viewBox="0 0 36 36" fill="none" xmlns="http://www.w3.org/2000/svg">
<path d="M27.0833 35.9166C25.1999 35.9166 23.2166 35.4666 21.1666 34.6C19.1666 33.75 17.1499 32.5833 15.1833 31.1666C13.2333 29.7333 11.3499 28.1333 9.56659 26.3833C7.79992 24.6 6.19992 22.7166 4.78325 20.7833C3.34992 18.7833 2.19992 16.7833 1.38325 14.85C0.516585 12.7833 0.083252 10.7833 0.083252 8.89998C0.083252 7.59998 0.316585 6.36665 0.766585 5.21665C1.23325 4.03331 1.98325 2.93331 2.99992 1.98331C4.28325 0.716647 5.74992 0.083313 7.31659 0.083313C7.96659 0.083313 8.63325 0.233313 9.19992 0.49998C9.84992 0.79998 10.3999 1.24998 10.7999 1.84998L14.6666 7.29998C15.0166 7.78331 15.2833 8.24998 15.4666 8.71665C15.6833 9.21665 15.7999 9.71665 15.7999 10.2C15.7999 10.8333 15.6166 11.45 15.2666 12.0333C15.0166 12.4833 14.6333 12.9666 14.1499 13.45L13.0166 14.6333C13.0333 14.6833 13.0499 14.7166 13.0666 14.75C13.2666 15.1 13.6666 15.7 14.4333 16.6C15.2499 17.5333 16.0166 18.3833 16.7833 19.1666C17.7666 20.1333 18.5833 20.9 19.3499 21.5333C20.2999 22.3333 20.9166 22.7333 21.2833 22.9166L21.2499 23L22.4666 21.8C22.9833 21.2833 23.4833 20.9 23.9666 20.65C24.8833 20.0833 26.0499 19.9833 27.2166 20.4666C27.6499 20.65 28.1166 20.9 28.6166 21.25L34.1499 25.1833C34.7666 25.6 35.2166 26.1333 35.4833 26.7666C35.7333 27.4 35.8499 27.9833 35.8499 28.5666C35.8499 29.3666 35.6666 30.1666 35.3166 30.9166C34.9666 31.6666 34.5333 32.3167 33.9833 32.9166C33.0333 33.9666 31.9999 34.7166 30.7999 35.2C29.6499 35.6666 28.3999 35.9166 27.0833 35.9166ZM7.31659 2.58331C6.39992 2.58331 5.54992 2.98331 4.73325 3.78331C3.96659 4.49998 3.43325 5.28331 3.09992 6.13331C2.74992 6.99998 2.58325 7.91665 2.58325 8.89998C2.58325 10.45 2.94992 12.1333 3.68325 13.8666C4.43325 15.6333 5.48325 17.4666 6.81659 19.3C8.14992 21.1333 9.66659 22.9166 11.3333 24.6C12.9999 26.25 14.7999 27.7833 16.6499 29.1333C18.4499 30.45 20.2999 31.5166 22.1333 32.2833C24.9833 33.5 27.6499 33.7833 29.8499 32.8666C30.6999 32.5166 31.4499 31.9833 32.1333 31.2166C32.5166 30.8 32.8166 30.35 33.0666 29.8166C33.2666 29.4 33.3666 28.9666 33.3666 28.5333C33.3666 28.2666 33.3166 28 33.1833 27.7C33.1333 27.6 33.0333 27.4166 32.7166 27.2L27.1833 23.2666C26.8499 23.0333 26.5499 22.8666 26.2666 22.75C25.8999 22.6 25.7499 22.45 25.1833 22.8C24.8499 22.9666 24.5499 23.2166 24.2166 23.55L22.9499 24.8C22.2999 25.4333 21.2999 25.5833 20.5333 25.3L20.0833 25.1C19.3999 24.7333 18.5999 24.1666 17.7166 23.4166C16.9166 22.7333 16.0499 21.9333 14.9999 20.9C14.1833 20.0666 13.3666 19.1833 12.5166 18.2C11.7333 17.2833 11.1666 16.5 10.8166 15.85L10.6166 15.35C10.5166 14.9666 10.4833 14.75 10.4833 14.5166C10.4833 13.9166 10.6999 13.3833 11.1166 12.9666L12.3666 11.6666C12.6999 11.3333 12.9499 11.0166 13.1166 10.7333C13.2499 10.5166 13.2999 10.3333 13.2999 10.1666C13.2999 10.0333 13.2499 9.83331 13.1666 9.63331C13.0499 9.36665 12.8666 9.06665 12.6333 8.74998L8.76659 3.28331C8.59992 3.04998 8.39992 2.88331 8.14992 2.76665C7.88325 2.64998 7.59992 2.58331 7.31659 2.58331ZM21.2499 23.0166L20.9833 24.15L21.4333 22.9833C21.3499 22.9666 21.2833 22.9833 21.2499 23.0166Z" fill="#42A476"/>
</svg>
