<svg width="18" height="18" viewBox="0 0 18 18" fill="none" xmlns="http://www.w3.org/2000/svg">
<path d="M13.542 17.9584C12.6003 17.9584 11.6087 17.7334 10.5837 17.3001C9.58366 16.8751 8.57533 16.2917 7.59199 15.5834C6.61699 14.8667 5.67533 14.0667 4.78366 13.1917C3.90033 12.3001 3.10033 11.3584 2.39199 10.3917C1.67533 9.39175 1.10033 8.39175 0.691992 7.42508C0.258659 6.39175 0.0419922 5.39175 0.0419922 4.45008C0.0419922 3.80008 0.158659 3.18341 0.383659 2.60841C0.616992 2.01675 0.991992 1.46675 1.50033 0.991748C2.14199 0.358415 2.87533 0.041748 3.65866 0.041748C3.98366 0.041748 4.31699 0.116748 4.60033 0.250081C4.92533 0.400081 5.20033 0.625081 5.40033 0.925081L7.33366 3.65008C7.50866 3.89175 7.64199 4.12508 7.73366 4.35841C7.84199 4.60841 7.90033 4.85842 7.90033 5.10008C7.90033 5.41675 7.80866 5.72508 7.63366 6.01675C7.50866 6.24175 7.31699 6.48342 7.07533 6.72508L6.50866 7.31675C6.51699 7.34175 6.52533 7.35842 6.53366 7.37508C6.63366 7.55008 6.83366 7.85008 7.21699 8.30008C7.62533 8.76675 8.00866 9.19175 8.39199 9.58342C8.88366 10.0667 9.29199 10.4501 9.67533 10.7667C10.1503 11.1667 10.4587 11.3667 10.642 11.4584L10.6253 11.5001L11.2337 10.9001C11.492 10.6417 11.742 10.4501 11.9837 10.3251C12.442 10.0417 13.0253 9.99175 13.6087 10.2334C13.8253 10.3251 14.0587 10.4501 14.3087 10.6251L17.0753 12.5917C17.3837 12.8001 17.6087 13.0667 17.742 13.3834C17.867 13.7001 17.9253 13.9917 17.9253 14.2834C17.9253 14.6834 17.8337 15.0834 17.6587 15.4584C17.4837 15.8334 17.267 16.1584 16.992 16.4584C16.517 16.9834 16.0003 17.3584 15.4003 17.6001C14.8253 17.8334 14.2003 17.9584 13.542 17.9584ZM3.65866 1.29175C3.20033 1.29175 2.77533 1.49175 2.36699 1.89175C1.98366 2.25008 1.71699 2.64175 1.55033 3.06675C1.37533 3.50008 1.29199 3.95841 1.29199 4.45008C1.29199 5.22508 1.47533 6.06675 1.84199 6.93342C2.21699 7.81675 2.74199 8.73341 3.40866 9.65008C4.07533 10.5667 4.83366 11.4584 5.66699 12.3001C6.50033 13.1251 7.40033 13.8917 8.32533 14.5667C9.22533 15.2251 10.1503 15.7584 11.067 16.1417C12.492 16.7501 13.8253 16.8917 14.9253 16.4334C15.3503 16.2584 15.7253 15.9917 16.067 15.6084C16.2587 15.4001 16.4087 15.1751 16.5337 14.9084C16.6337 14.7001 16.6837 14.4834 16.6837 14.2667C16.6837 14.1334 16.6587 14.0001 16.592 13.8501C16.567 13.8001 16.517 13.7084 16.3587 13.6001L13.592 11.6334C13.4253 11.5167 13.2753 11.4334 13.1337 11.3751C12.9503 11.3001 12.8753 11.2251 12.592 11.4001C12.4253 11.4834 12.2753 11.6084 12.1087 11.7751L11.4753 12.4001C11.1503 12.7167 10.6503 12.7917 10.267 12.6501L10.042 12.5501C9.70033 12.3667 9.30033 12.0834 8.85866 11.7084C8.45866 11.3667 8.02533 10.9667 7.50033 10.4501C7.09199 10.0334 6.68366 9.59175 6.25866 9.10008C5.86699 8.64175 5.58366 8.25008 5.40866 7.92508L5.30866 7.67508C5.25866 7.48342 5.24199 7.37508 5.24199 7.25841C5.24199 6.95842 5.35033 6.69175 5.55866 6.48341L6.18366 5.83342C6.35033 5.66675 6.47533 5.50841 6.55866 5.36675C6.62533 5.25841 6.65033 5.16675 6.65033 5.08342C6.65033 5.01675 6.62533 4.91675 6.58366 4.81675C6.52533 4.68341 6.43366 4.53341 6.31699 4.37508L4.38366 1.64175C4.30033 1.52508 4.20033 1.44175 4.07533 1.38341C3.94199 1.32508 3.80033 1.29175 3.65866 1.29175ZM10.6253 11.5084L10.492 12.0751L10.717 11.4917C10.6753 11.4834 10.642 11.4917 10.6253 11.5084Z" fill="#42A476"/>
</svg>
