<svg width="26" height="26" viewBox="0 0 26 26" fill="none" xmlns="http://www.w3.org/2000/svg">
<path d="M6.72909 9.82087C6.72909 10.48 6.88659 11.1742 7.18992 11.8917C7.48742 12.5917 7.89575 13.2975 8.39159 13.9859C8.89325 14.6684 9.45325 15.3275 10.0658 15.9517C10.6899 16.57 11.3491 17.13 12.0258 17.6259C12.7258 18.1275 13.4258 18.53 14.1024 18.8159C14.8258 19.1192 15.5258 19.2709 16.1849 19.2709C16.6399 19.2709 17.0716 19.1892 17.4741 19.0317C17.8883 18.8684 18.2733 18.6059 18.6058 18.25C19.0491 17.8009 19.2708 17.2875 19.2708 16.7392C19.2708 16.5117 19.2183 16.2784 19.1249 16.08C19.0199 15.8525 18.8624 15.66 18.6524 15.52L16.7449 14.1667C16.5758 14.0442 16.4124 13.9509 16.2491 13.8867C16.0741 13.8109 15.8991 13.77 15.7299 13.77C15.5083 13.77 15.2924 13.8342 15.0883 13.9567C14.9308 14.0442 14.7616 14.1784 14.5924 14.3475L14.1783 14.7442C14.1608 14.7384 14.1491 14.7325 14.1374 14.7267C14.0149 14.6567 13.8049 14.5167 13.4899 14.2484C13.1633 13.9625 12.8658 13.6942 12.5916 13.4259C12.2533 13.0817 11.9849 12.7959 11.7633 12.5275C11.4833 12.195 11.3433 11.9792 11.2791 11.8509L11.2499 11.8625L11.6699 11.4367C11.8508 11.2559 11.9849 11.0809 12.0724 10.9117C12.2708 10.5909 12.3058 10.1825 12.1366 9.77421C12.0724 9.62254 11.9849 9.45921 11.8624 9.28421L10.4858 7.34754C10.3399 7.13171 10.1533 6.97421 9.93158 6.88088C9.70992 6.79338 9.50575 6.75254 9.30158 6.75254C9.02158 6.75254 8.74159 6.81671 8.47909 6.93921C8.21659 7.06171 7.98908 7.21337 7.77908 7.40587C7.41158 7.73838 7.14909 8.10004 6.97992 8.52004C6.81659 8.92254 6.72909 9.36004 6.72909 9.82087ZM18.3958 16.7392C18.3958 17.06 18.2558 17.3575 17.9758 17.6434C17.7249 17.9117 17.4508 18.0984 17.1533 18.215C16.8499 18.3375 16.5291 18.3959 16.1849 18.3959C15.6424 18.3959 15.0533 18.2675 14.4466 18.0109C13.8283 17.7484 13.1866 17.3809 12.5449 16.9142C11.9033 16.4475 11.2791 15.9167 10.6899 15.3334C10.1124 14.75 9.57575 14.12 9.10325 13.4725C8.64242 12.8425 8.26909 12.195 8.00075 11.5534C7.57492 10.5559 7.47575 9.62254 7.79659 8.85254C7.91909 8.55504 8.10575 8.29254 8.37408 8.05337C8.51992 7.91921 8.67742 7.81421 8.86408 7.72671C9.00992 7.65671 9.16159 7.62171 9.31325 7.62171C9.40659 7.62171 9.49992 7.63921 9.60492 7.68587C9.63992 7.70337 9.70408 7.73838 9.77992 7.84921L11.1566 9.78587C11.2383 9.90254 11.2966 10.0075 11.3374 10.1067C11.3899 10.235 11.4424 10.2875 11.3199 10.4859C11.2616 10.6025 11.1741 10.7075 11.0574 10.8242L10.6199 11.2675C10.3983 11.495 10.3458 11.845 10.4449 12.1134L10.5149 12.2709C10.6433 12.51 10.8416 12.79 11.1041 13.0992C11.3433 13.3792 11.6233 13.6825 11.9849 14.05C12.2766 14.3359 12.5858 14.6217 12.9299 14.9192C13.2508 15.1934 13.5249 15.3917 13.7524 15.5142L13.9274 15.5842C14.0616 15.6192 14.1374 15.6309 14.2191 15.6309C14.4291 15.6309 14.6158 15.555 14.7616 15.4092L15.2166 14.9717C15.3333 14.855 15.4441 14.7675 15.5433 14.7092C15.6191 14.6625 15.6833 14.645 15.7416 14.645C15.7883 14.645 15.8583 14.6625 15.9283 14.6917C16.0216 14.7325 16.1266 14.7967 16.2374 14.8784L18.1508 16.2317C18.2324 16.29 18.2908 16.36 18.3316 16.4475C18.3724 16.5409 18.3958 16.64 18.3958 16.7392ZM11.2441 11.8625L10.8474 11.9559L11.2558 11.7984C11.2616 11.8275 11.2558 11.8509 11.2441 11.8625Z" fill="#42A476"/>
<rect x="-0.5" y="-0.5" width="25" height="25" rx="12.5" transform="matrix(-4.37114e-08 -1 -1 4.37114e-08 25 25)" stroke="#42A476"/>
</svg>
