<svg width="14" height="15" viewBox="0 0 14 15" fill="none" xmlns="http://www.w3.org/2000/svg">
<path d="M10.7743 13.7708H8.44092C7.02925 13.7708 6.25342 12.995 6.25342 11.5833V3.41663C6.25342 2.00496 7.02925 1.22913 8.44092 1.22913H10.7743C12.1859 1.22913 12.9618 2.00496 12.9618 3.41663V11.5833C12.9618 12.995 12.1801 13.7708 10.7743 13.7708ZM8.44092 2.10413C7.51925 2.10413 7.12842 2.49496 7.12842 3.41663V11.5833C7.12842 12.505 7.51925 12.8958 8.44092 12.8958H10.7743C11.6959 12.8958 12.0868 12.505 12.0868 11.5833V3.41663C12.0868 2.49496 11.6959 2.10413 10.7743 2.10413H8.44092Z" fill="#42A476"/>
<path d="M9.60758 4.4375H6.69092C6.45175 4.4375 6.25342 4.23917 6.25342 4C6.25342 3.76083 6.45175 3.5625 6.69092 3.5625H9.60758C9.84675 3.5625 10.0451 3.76083 10.0451 4C10.0451 4.23917 9.84675 4.4375 9.60758 4.4375Z" fill="#42A476"/>
<path d="M9.02425 11.4375H6.69092C6.45175 11.4375 6.25342 11.2392 6.25342 11C6.25342 10.7608 6.45175 10.5625 6.69092 10.5625H9.02425C9.26342 10.5625 9.46175 10.7608 9.46175 11C9.46175 11.2392 9.26342 11.4375 9.02425 11.4375Z" fill="#42A476"/>
<path d="M9.60747 9.10412C9.60163 9.10412 9.60163 9.10412 9.60747 9.10412L6.68497 9.07495C6.4458 9.07495 6.24747 8.87662 6.2533 8.63162C6.2533 8.39245 6.45163 8.19995 6.6908 8.19995C6.6908 8.19995 6.6908 8.19995 6.69663 8.19995L9.6133 8.22912C9.85247 8.22912 10.0508 8.42745 10.045 8.67245C10.0391 8.91162 9.84663 9.10412 9.60747 9.10412Z" fill="#42A476"/>
<path d="M8.44092 6.77087H6.69092C6.45175 6.77087 6.25342 6.57254 6.25342 6.33337C6.25342 6.09421 6.45175 5.89587 6.69092 5.89587H8.44092C8.68008 5.89587 8.87842 6.09421 8.87842 6.33337C8.87842 6.57254 8.68008 6.77087 8.44092 6.77087Z" fill="#42A476"/>
<path d="M3.2025 13.7533C2.67166 13.7533 2.17 13.4266 1.82583 12.855L1.3475 12.0616C1.1725 11.77 1.03833 11.2916 1.03833 10.9533V3.38746C1.03833 2.19746 2.00666 1.22913 3.19666 1.22913C4.38666 1.22913 5.355 2.19746 5.355 3.38746V10.9475C5.355 11.2858 5.22083 11.7641 5.04583 12.0558L4.5675 12.8491C4.235 13.4266 3.73333 13.7533 3.2025 13.7533ZM3.2025 2.10413C2.49666 2.10413 1.91916 2.68163 1.91916 3.38746V10.9475C1.91916 11.1283 2.00666 11.4491 2.1 11.6066L2.57833 12.4C2.75916 12.7033 2.98666 12.8725 3.2025 12.8725C3.41833 12.8725 3.64583 12.6975 3.82666 12.4L4.305 11.6066C4.39833 11.4491 4.48583 11.1283 4.48583 10.9475V3.38746C4.48583 2.68163 3.90833 2.10413 3.2025 2.10413Z" fill="#42A476"/>
<path d="M4.92333 5.02087H1.47583C1.23666 5.02087 1.03833 4.82254 1.03833 4.58337C1.03833 4.34421 1.23666 4.14587 1.47583 4.14587H4.92333C5.1625 4.14587 5.36083 4.34421 5.36083 4.58337C5.36083 4.82254 5.1625 5.02087 4.92333 5.02087Z" fill="#42A476"/>
</svg>
