<svg width="28" height="29" viewBox="0 0 28 29" fill="none" xmlns="http://www.w3.org/2000/svg">
<path d="M13.4166 25.8749C6.82492 25.8749 1.45825 20.5083 1.45825 13.9166C1.45825 7.32492 6.82492 1.95825 13.4166 1.95825C20.0083 1.95825 25.3749 7.32492 25.3749 13.9166C25.3749 20.5083 20.0083 25.8749 13.4166 25.8749ZM13.4166 3.70825C7.78159 3.70825 3.20825 8.29325 3.20825 13.9166C3.20825 19.5399 7.78159 24.1249 13.4166 24.1249C19.0516 24.1249 23.6249 19.5399 23.6249 13.9166C23.6249 8.29325 19.0516 3.70825 13.4166 3.70825Z" fill="white"/>
<path d="M25.6666 27.0416C25.4449 27.0416 25.2233 26.9599 25.0483 26.7849L22.7149 24.4516C22.3766 24.1133 22.3766 23.5533 22.7149 23.2149C23.0533 22.8766 23.6133 22.8766 23.9516 23.2149L26.2849 25.5483C26.6233 25.8866 26.6233 26.4466 26.2849 26.7849C26.1099 26.9599 25.8883 27.0416 25.6666 27.0416Z" fill="white"/>
</svg>
