<svg width="40" height="40" viewBox="0 0 40 40" fill="none" xmlns="http://www.w3.org/2000/svg">
<path d="M23.6999 36.05C21.7332 36.05 18.9499 34.6667 16.7499 28.05L15.5499 24.45L11.9499 23.25C5.34989 21.05 3.96655 18.2667 3.96655 16.3C3.96655 14.35 5.34989 11.55 11.9499 9.33333L26.0999 4.61666C29.6332 3.43333 32.5832 3.78333 34.3999 5.58333C36.2165 7.38333 36.5666 10.35 35.3832 13.8833L30.6666 28.0333C28.4499 34.6667 25.6666 36.05 23.6999 36.05ZM12.7332 11.7167C8.09989 13.2667 6.44989 15.1 6.44989 16.3C6.44989 17.5 8.09989 19.3333 12.7332 20.8667L16.9332 22.2667C17.2999 22.3833 17.5999 22.6833 17.7166 23.05L19.1166 27.25C20.6499 31.8833 22.4999 33.5333 23.6999 33.5333C24.8999 33.5333 26.7332 31.8833 28.2832 27.25L32.9999 13.1C33.8499 10.5333 33.6999 8.43333 32.6166 7.35C31.5332 6.26666 29.4332 6.13333 26.8832 6.98333L12.7332 11.7167Z" fill="#42A476"/>
<path d="M16.8501 24C16.5334 24 16.2167 23.8833 15.9667 23.6333C15.4834 23.15 15.4834 22.35 15.9667 21.8666L21.9334 15.8833C22.4167 15.4 23.2167 15.4 23.7001 15.8833C24.1834 16.3666 24.1834 17.1666 23.7001 17.65L17.7334 23.6333C17.5001 23.8833 17.1667 24 16.8501 24Z" fill="#42A476"/>
</svg>
