<svg width="20" height="20" viewBox="0 0 20 20" fill="none" xmlns="http://www.w3.org/2000/svg">
<path d="M15.1584 14.7917H6.28341C5.45841 14.7917 4.66674 14.4418 4.10841 13.8334C3.55008 13.2251 3.26675 12.4084 3.33341 11.5834L4.02508 3.28342C4.05008 3.02508 3.95841 2.77509 3.78341 2.58342C3.60841 2.39175 3.36674 2.29175 3.10841 2.29175H1.66675C1.32508 2.29175 1.04175 2.00841 1.04175 1.66675C1.04175 1.32508 1.32508 1.04175 1.66675 1.04175H3.11675C3.72509 1.04175 4.30008 1.30008 4.70841 1.74174C4.93341 1.99174 5.10008 2.28342 5.19174 2.60842H15.6001C16.4417 2.60842 17.2167 2.94175 17.7834 3.54175C18.3417 4.15008 18.6251 4.94175 18.5584 5.78342L18.1084 12.0334C18.0167 13.5584 16.6834 14.7917 15.1584 14.7917ZM5.23341 3.85008L4.58341 11.6834C4.54175 12.1667 4.70008 12.6251 5.02508 12.9834C5.35008 13.3417 5.80008 13.5334 6.28341 13.5334H15.1584C16.0251 13.5334 16.8084 12.8001 16.8751 11.9334L17.3251 5.68342C17.3584 5.19175 17.2001 4.72509 16.8751 4.38342C16.5501 4.03342 16.1001 3.84174 15.6084 3.84174H5.23341V3.85008Z" fill="#292D32"/>
<path d="M13.5417 18.9583C12.625 18.9583 11.875 18.2083 11.875 17.2917C11.875 16.375 12.625 15.625 13.5417 15.625C14.4583 15.625 15.2083 16.375 15.2083 17.2917C15.2083 18.2083 14.4583 18.9583 13.5417 18.9583ZM13.5417 16.875C13.3083 16.875 13.125 17.0583 13.125 17.2917C13.125 17.525 13.3083 17.7083 13.5417 17.7083C13.775 17.7083 13.9583 17.525 13.9583 17.2917C13.9583 17.0583 13.775 16.875 13.5417 16.875Z" fill="#292D32"/>
<path d="M6.87492 18.9583C5.95825 18.9583 5.20825 18.2083 5.20825 17.2917C5.20825 16.375 5.95825 15.625 6.87492 15.625C7.79159 15.625 8.54159 16.375 8.54159 17.2917C8.54159 18.2083 7.79159 18.9583 6.87492 18.9583ZM6.87492 16.875C6.64159 16.875 6.45825 17.0583 6.45825 17.2917C6.45825 17.525 6.64159 17.7083 6.87492 17.7083C7.10825 17.7083 7.29159 17.525 7.29159 17.2917C7.29159 17.0583 7.10825 16.875 6.87492 16.875Z" fill="#292D32"/>
<path d="M17.5 7.29175H7.5C7.15833 7.29175 6.875 7.00841 6.875 6.66675C6.875 6.32508 7.15833 6.04175 7.5 6.04175H17.5C17.8417 6.04175 18.125 6.32508 18.125 6.66675C18.125 7.00841 17.8417 7.29175 17.5 7.29175Z" fill="#292D32"/>
</svg>
