<svg width="11" height="11" viewBox="0 0 11 11" fill="none" xmlns="http://www.w3.org/2000/svg">
<path d="M5.2895 1.1308C5.37557 0.956401 5.62425 0.956401 5.71032 1.1308L6.82449 3.38835C6.85866 3.4576 6.92473 3.5056 7.00115 3.5167L9.49251 3.87872C9.68497 3.90668 9.76181 4.14319 9.62255 4.27894L7.81979 6.0362C7.76449 6.0901 7.73925 6.16777 7.75231 6.24389L8.17788 8.72518C8.21076 8.91685 8.00957 9.06302 7.83743 8.97253L5.6091 7.80102C5.54074 7.76508 5.45908 7.76508 5.39072 7.80102L3.16238 8.97253C2.99025 9.06302 2.78906 8.91685 2.82194 8.72518L3.24751 6.24389C3.26057 6.16777 3.23533 6.0901 3.18003 6.0362L1.37727 4.27894C1.238 4.14319 1.31485 3.90668 1.50731 3.87872L3.99866 3.5167C4.07509 3.5056 4.14115 3.4576 4.17533 3.38835L5.2895 1.1308Z" fill="#FFC700" stroke="#FFC700" stroke-width="2" stroke-linejoin="round"/>
</svg>
