<svg width="100" height="100" viewBox="0 0 100 100" fill="none" xmlns="http://www.w3.org/2000/svg">
<path d="M49.9997 94.7916C25.2913 94.7916 5.20801 74.7083 5.20801 49.9999C5.20801 25.2916 25.2913 5.20825 49.9997 5.20825C74.708 5.20825 94.7913 25.2916 94.7913 49.9999C94.7913 74.7083 74.708 94.7916 49.9997 94.7916ZM49.9997 11.4583C28.7497 11.4583 11.458 28.7499 11.458 49.9999C11.458 71.2499 28.7497 88.5416 49.9997 88.5416C71.2497 88.5416 88.5413 71.2499 88.5413 49.9999C88.5413 28.7499 71.2497 11.4583 49.9997 11.4583Z" fill="#42A476"/>
<path d="M44.083 64.9166C43.2497 64.9166 42.458 64.5833 41.8747 63.9999L30.083 52.2083C28.8747 50.9999 28.8747 48.9999 30.083 47.7916C31.2913 46.5833 33.2913 46.5833 34.4997 47.7916L44.083 57.3749L65.4997 35.9583C66.708 34.7499 68.708 34.7499 69.9163 35.9583C71.1247 37.1666 71.1247 39.1666 69.9163 40.3749L46.2913 63.9999C45.708 64.5833 44.9163 64.9166 44.083 64.9166Z" fill="#42A476"/>
</svg>
