<svg width="32" height="32" viewBox="0 0 32 32" fill="none" xmlns="http://www.w3.org/2000/svg">
<path d="M17.3334 19.6666H2.66675C2.12008 19.6666 1.66675 19.2133 1.66675 18.6666V10.16C1.66675 9.73331 1.9334 9.35994 2.32007 9.21328C2.72007 9.06661 3.16009 9.18665 3.42676 9.50665C4.24009 10.48 5.50676 11.0266 6.76009 10.9866C7.82676 10.96 8.81339 10.56 9.56006 9.85333C9.90673 9.56 10.1867 9.21331 10.4001 8.82664C10.8134 8.11997 11.0134 7.34662 11.0001 6.55996C10.9734 5.33329 10.4401 4.2133 9.53345 3.39996C9.21345 3.11996 9.10675 2.67994 9.25342 2.29327C9.40008 1.90661 9.77343 1.63995 10.1868 1.63995H20.0001C20.5467 1.63995 21.0001 2.09329 21.0001 2.63995V15.9733C21.0001 18.0266 19.3601 19.6666 17.3334 19.6666ZM3.66675 17.6666H17.3334C18.2534 17.6666 19.0001 16.92 19.0001 16V3.66665H12.2534C12.7201 4.53331 12.9734 5.50667 13.0001 6.52C13.0267 7.68 12.7334 8.82664 12.1467 9.82664C11.8267 10.4 11.3867 10.9467 10.9067 11.3467C9.84007 12.36 8.3734 12.96 6.8134 13C5.70673 13.04 4.61343 12.76 3.68009 12.2533V17.6666H3.66675Z" fill="#42A476"/>
<path d="M25.3334 27.6667H24.0001C23.4534 27.6667 23.0001 27.2134 23.0001 26.6667C23.0001 25.7467 22.2534 25 21.3334 25C20.4134 25 19.6667 25.7467 19.6667 26.6667C19.6667 27.2134 19.2134 27.6667 18.6667 27.6667H13.3334C12.7867 27.6667 12.3334 27.2134 12.3334 26.6667C12.3334 25.7467 11.5867 25 10.6667 25C9.74675 25 9.00008 25.7467 9.00008 26.6667C9.00008 27.2134 8.54675 27.6667 8.00008 27.6667H6.66675C3.90675 27.6667 1.66675 25.4267 1.66675 22.6667V18.6667C1.66675 18.12 2.12008 17.6667 2.66675 17.6667H17.3334C18.2534 17.6667 19.0001 16.92 19.0001 16V6.66669C19.0001 6.12002 19.4534 5.66669 20.0001 5.66669H22.4535C23.7735 5.66669 24.9867 6.37337 25.6401 7.52004L27.9201 11.5067C28.0934 11.8134 28.0934 12.2 27.9201 12.5067C27.7468 12.8134 27.4134 13 27.0534 13H25.3334C25.1467 13 25.0001 13.1467 25.0001 13.3334V17.3334C25.0001 17.52 25.1467 17.6667 25.3334 17.6667H29.3334C29.8801 17.6667 30.3334 18.12 30.3334 18.6667V22.6667C30.3334 25.4267 28.0934 27.6667 25.3334 27.6667ZM24.8668 25.6667H25.3334C26.9867 25.6667 28.3334 24.32 28.3334 22.6667V19.6667H25.3334C24.0534 19.6667 23.0001 18.6134 23.0001 17.3334V13.3334C23.0001 12.0534 24.0401 11 25.3334 11L23.9067 8.50669C23.6134 7.98669 23.0535 7.66669 22.4535 7.66669H21.0001V16C21.0001 18.0267 19.3601 19.6667 17.3334 19.6667H3.66675V22.6667C3.66675 24.32 5.01341 25.6667 6.66675 25.6667H7.13338C7.57338 24.1334 8.98675 23 10.6667 23C12.3467 23 13.7601 24.1334 14.2001 25.6667H17.8134C18.2534 24.1334 19.6668 23 21.3468 23C23.0268 23 24.4268 24.1334 24.8668 25.6667Z" fill="#42A476"/>
<path d="M10.6667 30.3333C8.64 30.3333 7 28.6933 7 26.6667C7 24.64 8.64 23 10.6667 23C12.6933 23 14.3333 24.64 14.3333 26.6667C14.3333 28.6933 12.6933 30.3333 10.6667 30.3333ZM10.6667 25C9.74667 25 9 25.7467 9 26.6667C9 27.5867 9.74667 28.3333 10.6667 28.3333C11.5867 28.3333 12.3333 27.5867 12.3333 26.6667C12.3333 25.7467 11.5867 25 10.6667 25Z" fill="#42A476"/>
<path d="M21.3334 30.3333C19.3067 30.3333 17.6667 28.6933 17.6667 26.6667C17.6667 24.64 19.3067 23 21.3334 23C23.3601 23 25.0001 24.64 25.0001 26.6667C25.0001 28.6933 23.3601 30.3333 21.3334 30.3333ZM21.3334 25C20.4134 25 19.6667 25.7467 19.6667 26.6667C19.6667 27.5867 20.4134 28.3333 21.3334 28.3333C22.2534 28.3333 23.0001 27.5867 23.0001 26.6667C23.0001 25.7467 22.2534 25 21.3334 25Z" fill="#42A476"/>
<path d="M29.3333 19.6667H25.3333C24.0533 19.6667 23 18.6133 23 17.3333V13.3333C23 12.0533 24.0533 11 25.3333 11H27.0533C27.4133 11 27.7467 11.1867 27.92 11.5067L30.2 15.5067C30.28 15.6533 30.3333 15.8267 30.3333 16V18.6667C30.3333 19.2133 29.88 19.6667 29.3333 19.6667ZM25.3333 13C25.1467 13 25 13.1467 25 13.3333V17.3333C25 17.52 25.1467 17.6667 25.3333 17.6667H28.3333V16.2667L26.4666 13H25.3333Z" fill="#42A476"/>
<path d="M6.66659 13C3.17325 13 0.333252 10.16 0.333252 6.66665C0.333252 4.71998 1.19996 2.91995 2.70662 1.71995C3.82662 0.826617 5.23992 0.333313 6.66659 0.333313C10.1599 0.333313 12.9999 3.17331 12.9999 6.66665C12.9999 8.47998 12.2133 10.2133 10.8399 11.4133C9.67992 12.44 8.19992 13 6.66659 13ZM6.66659 2.33331C5.67992 2.33331 4.74655 2.66661 3.95988 3.29327C2.93321 4.10661 2.33325 5.34665 2.33325 6.66665C2.33325 9.05331 4.27992 11 6.66659 11C7.70659 11 8.71995 10.6133 9.53329 9.91998C10.4666 9.09332 10.9999 7.91998 10.9999 6.66665C10.9999 4.27998 9.05325 2.33331 6.66659 2.33331Z" fill="#42A476"/>
<path d="M5.33327 9C4.99994 9 4.66659 8.82669 4.47992 8.52002C4.19992 8.04002 4.3466 7.42665 4.8266 7.14665L6.01329 6.44002V5C6.01329 4.45333 6.46662 4 7.01329 4C7.55995 4 8.01329 4.45333 8.01329 5V7C8.01329 7.34667 7.82664 7.68002 7.53331 7.85335L5.86664 8.85335C5.67997 8.96002 5.50661 9 5.33327 9Z" fill="#42A476"/>
</svg>
