<svg width="33" height="32" viewBox="0 0 33 32" fill="none" xmlns="http://www.w3.org/2000/svg">
<path d="M20.4998 2.66675V16.0001C20.4998 17.4667 19.2998 18.6667 17.8332 18.6667H3.1665V10.1601C4.13984 11.3201 5.63321 12.0401 7.28654 12.0001C8.63321 11.9734 9.84651 11.4534 10.7532 10.5868C11.1665 10.2401 11.5132 9.80007 11.7799 9.32007C12.2599 8.50673 12.5265 7.54671 12.4998 6.54671C12.4598 4.98671 11.7665 3.61341 10.6865 2.66675H20.4998Z" stroke="#42A476" stroke-width="1.5" stroke-linecap="round" stroke-linejoin="round"/>
<path d="M29.8332 18.6667V22.6667C29.8332 24.8801 28.0465 26.6667 25.8332 26.6667H24.4998C24.4998 25.2001 23.2998 24.0001 21.8332 24.0001C20.3665 24.0001 19.1665 25.2001 19.1665 26.6667H13.8332C13.8332 25.2001 12.6332 24.0001 11.1665 24.0001C9.69984 24.0001 8.49984 25.2001 8.49984 26.6667H7.1665C4.95317 26.6667 3.1665 24.8801 3.1665 22.6667V18.6667H17.8332C19.2998 18.6667 20.4998 17.4667 20.4998 16.0001V6.66675H22.9532C23.9132 6.66675 24.7932 7.18676 25.2732 8.01343L27.5531 12.0001H25.8332C25.0998 12.0001 24.4998 12.6001 24.4998 13.3334V17.3334C24.4998 18.0667 25.0998 18.6667 25.8332 18.6667H29.8332Z" stroke="#42A476" stroke-width="1.5" stroke-linecap="round" stroke-linejoin="round"/>
<path d="M11.1667 29.3333C12.6394 29.3333 13.8333 28.1394 13.8333 26.6667C13.8333 25.1939 12.6394 24 11.1667 24C9.69391 24 8.5 25.1939 8.5 26.6667C8.5 28.1394 9.69391 29.3333 11.1667 29.3333Z" stroke="#42A476" stroke-width="1.5" stroke-linecap="round" stroke-linejoin="round"/>
<path d="M21.8332 29.3333C23.3059 29.3333 24.4998 28.1394 24.4998 26.6667C24.4998 25.1939 23.3059 24 21.8332 24C20.3604 24 19.1665 25.1939 19.1665 26.6667C19.1665 28.1394 20.3604 29.3333 21.8332 29.3333Z" stroke="#42A476" stroke-width="1.5" stroke-linecap="round" stroke-linejoin="round"/>
<path d="M29.8333 16V18.6667H25.8333C25.1 18.6667 24.5 18.0667 24.5 17.3333V13.3333C24.5 12.6 25.1 12 25.8333 12H27.5533L29.8333 16Z" stroke="#42A476" stroke-width="1.5" stroke-linecap="round" stroke-linejoin="round"/>
<path d="M12.5002 6.66659C12.5002 8.26659 11.7935 9.69325 10.6868 10.6666C9.74018 11.4933 8.5135 11.9999 7.16683 11.9999C4.22016 11.9999 1.8335 9.61325 1.8335 6.66659C1.8335 4.98659 2.60683 3.47993 3.8335 2.50659C4.7535 1.77326 5.9135 1.33325 7.16683 1.33325C10.1135 1.33325 12.5002 3.71992 12.5002 6.66659Z" stroke="#42A476" stroke-width="1.5" stroke-miterlimit="10" stroke-linecap="round" stroke-linejoin="round"/>
<path d="M7.50016 5V7L5.8335 8" stroke="#42A476" stroke-width="1.5" stroke-miterlimit="10" stroke-linecap="round" stroke-linejoin="round"/>
</svg>
