<svg width="29" height="28" viewBox="0 0 29 28" fill="none" xmlns="http://www.w3.org/2000/svg">
<path d="M17.9999 26.5417H10.9999C4.66492 26.5417 1.95825 23.835 1.95825 17.5V10.5C1.95825 4.16504 4.66492 1.45837 10.9999 1.45837H17.9999C24.3349 1.45837 27.0416 4.16504 27.0416 10.5V17.5C27.0416 23.835 24.3349 26.5417 17.9999 26.5417ZM10.9999 3.20837C5.62158 3.20837 3.70825 5.12171 3.70825 10.5V17.5C3.70825 22.8784 5.62158 24.7917 10.9999 24.7917H17.9999C23.3783 24.7917 25.2916 22.8784 25.2916 17.5V10.5C25.2916 5.12171 23.3783 3.20837 17.9999 3.20837H10.9999Z" fill="#42A476"/>
<path d="M21.3834 11.4334C21.3601 11.4334 21.3251 11.4334 21.3018 11.4334C17.2651 11.0367 13.2518 10.8734 9.27345 11.2817L7.7101 11.4334C7.2201 11.48 6.80011 11.13 6.75344 10.6517C6.70677 10.1734 7.05677 9.7417 7.53511 9.69503L9.09844 9.54336C13.1934 9.13502 17.3234 9.2867 21.4768 9.69503C21.9551 9.7417 22.3051 10.1734 22.2584 10.6517C22.2118 11.095 21.8268 11.4334 21.3834 11.4334Z" fill="#42A476"/>
<path d="M17.1716 10.6634C16.7516 10.6634 16.3783 10.3601 16.3083 9.94007L16.145 8.9484C16.1217 8.78507 16.075 8.5284 16.0283 8.47006C16.0283 8.47006 15.9117 8.40007 15.4917 8.40007H13.485C13.0533 8.40007 12.9367 8.47006 12.9367 8.47006C12.9133 8.51673 12.8667 8.77341 12.8433 8.93674L12.68 9.94007C12.5983 10.4184 12.1433 10.7334 11.6767 10.6634C11.1983 10.5817 10.8833 10.1267 10.9533 9.66007L11.1167 8.65673C11.245 7.91007 11.455 6.66174 13.485 6.66174H15.4917C17.5333 6.66174 17.7433 7.96839 17.86 8.66839L18.0233 9.66007C18.105 10.1384 17.7783 10.5934 17.3117 10.6634C17.2767 10.6634 17.2183 10.6634 17.1716 10.6634Z" fill="#42A476"/>
<path d="M16.9501 21.3616H12.0384C9.08674 21.3616 8.9584 19.5883 8.87674 18.41L8.37508 10.6983C8.34008 10.22 8.71341 9.79997 9.19174 9.76497C9.68174 9.72997 10.0901 10.1033 10.1251 10.5817L10.6267 18.2816C10.7084 19.425 10.7201 19.6 12.0384 19.6H16.9501C18.2684 19.6 18.2801 19.425 18.3617 18.2816L18.8634 10.5817C18.8984 10.1033 19.2951 9.72997 19.7967 9.76497C20.2751 9.79997 20.6484 10.2083 20.6134 10.6983L20.1117 18.3983C20.0301 19.5883 19.9134 21.3616 16.9501 21.3616Z" fill="#42A476"/>
</svg>
