<svg width="32" height="32" viewBox="0 0 32 32" fill="none" xmlns="http://www.w3.org/2000/svg">
<path d="M14.3867 20.2266C14.12 20.2266 13.8667 20.12 13.68 19.9333L10.4533 16.7066C10.0667 16.32 10.0667 15.68 10.4533 15.2933C10.84 14.9066 11.48 14.9066 11.8667 15.2933L14.3867 17.8133L20.12 12.08C20.5067 11.6933 21.1467 11.6933 21.5333 12.08C21.92 12.4666 21.92 13.1066 21.5333 13.4933L15.0933 19.9333C14.9067 20.12 14.6533 20.2266 14.3867 20.2266Z" fill="#42A476"/>
<path d="M16 30.3334C15.16 30.3334 14.32 30.0534 13.6667 29.4934L11.56 27.68C11.3467 27.4934 10.8133 27.3067 10.5333 27.3067H8.24001C6.26667 27.3067 4.66667 25.7067 4.66667 23.7334V21.4534C4.66667 21.1734 4.48001 20.6534 4.29334 20.44L2.49334 18.32C1.40001 17.0267 1.40001 14.9867 2.49334 13.6934L4.29334 11.5734C4.48001 11.36 4.66667 10.84 4.66667 10.56V8.26669C4.66667 6.29335 6.26667 4.69335 8.24001 4.69335H10.5467C10.8267 4.69335 11.36 4.49335 11.5733 4.32002L13.68 2.50669C14.9867 1.38669 17.0267 1.38669 18.3333 2.50669L20.44 4.32002C20.6533 4.50669 21.1867 4.69335 21.4667 4.69335H23.7333C25.7067 4.69335 27.3067 6.29335 27.3067 8.26669V10.5334C27.3067 10.8134 27.5067 11.3467 27.6933 11.56L29.5067 13.6667C30.6267 14.9734 30.6267 17.0134 29.5067 18.32L27.6933 20.4267C27.5067 20.64 27.3067 21.1734 27.3067 21.4534V23.72C27.3067 25.6934 25.7067 27.2934 23.7333 27.2934H21.4667C21.1867 27.2934 20.6533 27.4934 20.44 27.6667L18.3333 29.48C17.68 30.0534 16.84 30.3334 16 30.3334ZM8.24001 6.69335C7.37334 6.69335 6.66667 7.40002 6.66667 8.26669V10.5467C6.66667 11.3067 6.30667 12.28 5.81334 12.8534L4.01334 14.9734C3.54667 15.52 3.54667 16.4667 4.01334 17.0134L5.81334 19.1334C6.30667 19.72 6.66667 20.68 6.66667 21.44V23.72C6.66667 24.5867 7.37334 25.2934 8.24001 25.2934H10.5467C11.32 25.2934 12.2933 25.6534 12.88 26.16L14.9867 27.9734C15.5333 28.44 16.4933 28.44 17.04 27.9734L19.1467 26.16C19.7333 25.6667 20.7067 25.2934 21.48 25.2934H23.7467C24.6133 25.2934 25.32 24.5867 25.32 23.72V21.4534C25.32 20.68 25.68 19.7067 26.1867 19.12L28 17.0134C28.4667 16.4667 28.4667 15.5067 28 14.96L26.1867 12.8534C25.68 12.2667 25.32 11.2934 25.32 10.52V8.26669C25.32 7.40002 24.6133 6.69335 23.7467 6.69335H21.48C20.7067 6.69335 19.7333 6.33335 19.1467 5.82669L17.04 4.01335C16.4933 3.54669 15.5333 3.54669 14.9867 4.01335L12.88 5.84002C12.2933 6.33335 11.3067 6.69335 10.5467 6.69335H8.24001Z" fill="#42A476"/>
</svg>
