<svg width="26" height="26" viewBox="0 0 26 26" fill="none" xmlns="http://www.w3.org/2000/svg">
<path d="M6.28134 19.25C6.28134 19.375 6.33134 19.4938 6.41884 19.5813C6.53759 19.7001 6.7126 19.75 6.8751 19.7063L9.81884 18.9188C10.7938 19.4438 11.8938 19.7188 13.0063 19.7188C16.7126 19.7188 19.7251 16.7063 19.7251 13C19.7251 9.29379 16.7126 6.28129 13.0063 6.28129C9.3001 6.28129 6.2876 9.29379 6.2876 13C6.2876 14.1313 6.56885 15.2375 7.10635 16.225L6.30009 19.125C6.28759 19.1688 6.28134 19.2063 6.28134 19.25ZM8.07509 16.1625C8.07509 16.0813 8.05008 16 8.01258 15.925C7.49383 15.0438 7.21884 14.0313 7.21884 13C7.21884 9.81254 9.81259 7.21879 13.0001 7.21879C16.1876 7.21879 18.7813 9.81254 18.7813 13C18.7813 16.1875 16.1876 18.7813 13.0001 18.7813C11.9813 18.7813 10.9876 18.5125 10.1126 18.0063C10.0063 17.9438 9.87509 17.925 9.75634 17.9563L7.41885 18.5813L8.05634 16.2813C8.06884 16.2438 8.07509 16.2 8.07509 16.1625Z" fill="#42A476"/>
<path d="M9.40006 11.2875C9.40006 11.675 9.48757 12.075 9.66882 12.4937C9.83757 12.8875 10.0626 13.2812 10.3438 13.6625C10.6188 14.0375 10.9313 14.4062 11.2688 14.7437C11.6126 15.0812 11.9751 15.3937 12.3501 15.6687C12.7438 15.95 13.1313 16.175 13.5126 16.3375C13.9251 16.5125 14.3313 16.6 14.7188 16.6C14.9938 16.6 15.2563 16.55 15.5001 16.4562C15.7563 16.3562 15.9876 16.1937 16.1876 15.9812C16.5813 15.5812 16.7251 15.0062 16.5063 14.55C16.4376 14.3937 16.3251 14.2625 16.1751 14.1625L15.1563 13.4375C15.0563 13.3625 14.9501 13.3062 14.8438 13.2625C14.7188 13.2125 14.5938 13.1812 14.4751 13.1812C14.3126 13.1812 14.1501 13.225 14.0063 13.3125C13.9126 13.3687 13.8001 13.45 13.6938 13.5562L13.6063 13.6375C13.5563 13.6 13.4938 13.5562 13.4188 13.4875C13.2688 13.3562 13.1063 13.2125 12.9501 13.0562C12.8001 12.9 12.6501 12.7437 12.5188 12.5875C12.4563 12.5125 12.4063 12.45 12.3751 12.4L12.4626 12.3125C12.5751 12.2 12.6626 12.0875 12.7188 11.975C12.8501 11.7687 12.8813 11.45 12.7626 11.1687C12.7251 11.0687 12.6688 10.9687 12.5938 10.8625L11.8563 9.8187C11.7563 9.67495 11.6188 9.56247 11.4626 9.48747C11.3063 9.42497 11.1688 9.39996 11.0251 9.39996C10.8376 9.39996 10.6563 9.44372 10.4813 9.52497C10.3188 9.60622 10.1751 9.69998 10.0438 9.81249C9.82506 10.0125 9.66256 10.2437 9.55631 10.4937C9.45006 10.7437 9.40006 11.0125 9.40006 11.2875ZM15.6626 15.0062C15.6626 15.0437 15.6626 15.1687 15.5063 15.325C15.3938 15.4437 15.2751 15.525 15.1438 15.5812C15.0126 15.6375 14.8626 15.6625 14.7126 15.6625C14.4501 15.6625 14.1688 15.6 13.8688 15.475C13.5563 15.3437 13.2251 15.15 12.8938 14.9125C12.5626 14.6687 12.2313 14.3937 11.9251 14.0875C11.6251 13.7812 11.3438 13.4562 11.0938 13.1187C10.8563 12.7937 10.6688 12.4625 10.5251 12.1312C10.3188 11.6562 10.2688 11.2187 10.4188 10.8625C10.4688 10.7375 10.5563 10.625 10.6688 10.5125C10.7313 10.4562 10.7938 10.4125 10.8751 10.375C10.9188 10.3562 10.9688 10.3437 11.0126 10.3437C11.0251 10.3437 11.0438 10.3437 11.0813 10.3625L11.8063 11.4062C11.8376 11.45 11.8626 11.4937 11.8751 11.5312C11.8626 11.5562 11.8438 11.5937 11.7751 11.6625L11.5376 11.9C11.3563 12.0812 11.3063 12.3687 11.3876 12.6L11.4376 12.7125C11.5126 12.8562 11.6251 13.0187 11.7813 13.2C11.9313 13.375 12.0876 13.5437 12.2626 13.725C12.4438 13.9 12.6126 14.0562 12.7876 14.2062C12.9813 14.3687 13.1376 14.4812 13.2688 14.5562L13.4313 14.625C13.4938 14.6437 13.5626 14.65 13.6251 14.65C13.8001 14.65 13.9563 14.5875 14.0813 14.4687L14.3251 14.2312C14.3938 14.1625 14.4313 14.1375 14.4563 14.125C14.5001 14.1437 14.5376 14.1687 14.5813 14.2L15.6126 14.9312L15.6626 15.0062Z" fill="#42A476"/>
<rect x="-0.5" y="-0.5" width="25" height="25" rx="12.5" transform="matrix(-4.37114e-08 -1 -1 4.37114e-08 25 25)" stroke="#42A476"/>
</svg>
